<?xml version="1.0" standalone="no"?>
<!DOCTYPE svg PUBLIC "-//W3C//DTD SVG 1.1//EN" "http://www.w3.org/Graphics/SVG/1.1/DTD/svg11.dtd" >
<svg xmlns="http://www.w3.org/2000/svg">
<metadata>
This is a custom SVG font generated by IcoMoon.
6
</metadata>
<defs>
<font id="icomoon" horiz-adv-x="512" >
<font-face units-per-em="512" ascent="480" descent="-32" />
<missing-glyph horiz-adv-x="512" />
<glyph unicode="&#x22;" d="M 383.936,288.00L 383.936,352.00 C 383.936,440.368, 320.00,480.00, 256.00,480.00L 127.936,480.00 C 64.00,480.00,0.00,446.00,0.00,352.00c0.00-92.00, 64.00-128.00, 127.936-128.00l 14.88,0.00 
	C 133.888,206.672, 128.176,186.08, 128.00,161.088l0.00-66.336 C 128.672,24.656, 185.728-32.00, 256.00-32.00c0.00,35.376, 28.688,64.00, 64.00,64.00l 63.936,0.00 C 448.00,32.00, 512.00,68.00, 512.00,160.00
	C 512.00,254.00, 448.00,288.00, 383.936,288.00z M 127.936,288.00C 64.00,288.00, 64.00,336.192, 64.00,352.00c0.00,19.184,0.00,64.00, 63.936,64.00L 256.00,416.00 c 23.936,0.00, 64.00-8.32, 64.00-64.00l0.00-64.00 
	c0.00-20.912-10.064-39.536-25.744-51.216C 270.88,267.872, 233.744,288.00, 192.00,288.00L 127.936,288.00 z M 383.936,96.00L 320.00,96.00 c-41.808,0.00-79.008-20.128-102.368-51.184
	C 202.064,56.496, 192.00,75.12, 192.00,96.00l0.00,64.00 c0.00,29.28, 14.56,47.056, 29.056,56.192C 241.568,205.504, 256.00,184.688, 256.00,160.00c 47.296,0.00, 88.096,25.92, 110.304,64.032
	L 383.936,224.00C 448.00,224.00, 448.00,179.152, 448.00,160.00C 448.00,144.16, 448.00,96.00, 383.936,96.00z" />
<glyph unicode="&#x24;" d="M 256.00,160.00c 70.688,0.00, 127.936,57.312, 127.936,128.00L 383.936,352.00 C 383.936,440.336, 320.00,480.00, 256.00,480.00L 127.936,480.00 C 64.00,480.00,0.00,446.00,0.00,352.00c0.00-92.00, 64.00-128.00, 127.936-128.00L 192.00,224.00 
		C 227.312,224.00, 256.00,195.312, 256.00,160.00zM 415.68,284.592C 413.808,198.00, 343.008,128.00, 256.00,128.00l-32.00,0.00 l0.00,32.00 c0.00,17.664-14.368,32.00-32.00,32.00L 131.184,192.00 
		C 129.264,182.448, 128.08,172.224, 128.00,161.184l0.00-66.416 C 128.672,24.656, 185.728-32.00, 256.00-32.00c0.00,35.376, 28.688,64.00, 64.00,64.00l 63.936,0.00 C 448.00,32.00, 512.00,68.00, 512.00,160.00
		C 512.00,238.288, 467.44,274.56, 415.68,284.592z" />
<glyph unicode="&#x26;" d="M 479.008,96.00c0.00,0.00, 33.008,64.00, 33.008,128.00C 512.00,384.00, 384.048,416.00, 256.032,416.00C-101.904,416.00, 0.176,96.00, 64.096,32.00c 64.00,64.00, 64.00,64.00, 159.936,64.00
				L 479.008,96.00 z" />
<glyph unicode="&#x28;" d="M0.00,128.00c0.00-70.688, 57.376-128.00, 128.00-128.00c0.00,35.376, 28.688,64.00, 64.00,64.00l 128.00,0.00 c 106.064,0.00, 192.00,86.00, 192.00,192.00S 426.064,448.00, 320.00,448.00L 160.00,448.00 
			C 71.632,448.00,0.00,376.368,0.00,288.00L0.00,128.00 z" />
<glyph unicode="&#x29;" d="M 224.00,480.00C 100.32,480.00,0.00,379.68,0.00,256.00c0.00-61.312, 24.752-116.752, 64.688-157.248L 65.056-32.00l 106.192,70.944
	C 188.256,34.752, 205.744,32.00, 224.00,32.00c 123.68,0.00, 224.00,100.32, 224.00,224.00C 448.00,379.68, 347.68,480.00, 224.00,480.00z M 224.00,96.00c-11.312,0.00-23.568,1.68-37.44,5.056l-27.248,6.752
	l-30.688-20.32l 0.192,37.376l-18.56,18.816C 80.432,173.936, 64.00,213.808, 64.00,256.00C 64.00,344.256, 135.744,416.00, 224.00,416.00c 88.256,0.00, 160.00-71.744, 160.00-160.00
	C 384.00,167.744, 312.256,96.00, 224.00,96.00z" horiz-adv-x="448" />
<glyph unicode="&#x2a;" d="M 224.00,480.00C 100.32,480.00,0.00,379.68,0.00,256.00c0.00-61.312, 24.752-116.752, 64.688-157.248L 64.00-32.00l 107.248,70.944
			C 188.256,34.752, 205.744,32.00, 224.00,32.00c 123.68,0.00, 224.00,100.32, 224.00,224.00S 347.68,480.00, 224.00,480.00z" horiz-adv-x="448" />
<glyph unicode="&#x2b;" d="M 96.00,288.00L0.00,192.00L 192.00,0.00L 512.00,320.00L 416.00,416.00L 192.00,192.00 z" />
<glyph unicode="&#x2c;" d="M 256.00,480.00C 114.624,480.00,0.00,365.376,0.00,224.00s 114.624-256.00, 256.00-256.00s 256.00,114.624, 256.00,256.00S 397.376,480.00, 256.00,480.00z M 216.32,105.872
		L 98.528,223.68l 45.248,45.248l 72.528-72.56l 153.872,153.872l 45.248-45.248L 216.32,105.872z" />
<glyph unicode="&#x2d;" d="M 480.00,89.632L 345.504,224.00L 480.00,358.368L 390.368,448.00L 256.00,313.568L 121.568,448.00L 32.00,358.368L 166.368,224.00L 32.00,89.632L 121.568,0.00L 256.00,134.432L 390.368,0.00 		z" />
<glyph unicode="&#x2e;" d="M 256.00,480.00C 114.624,480.00,0.00,365.376,0.00,224.00s 114.624-256.00, 256.00-256.00s 256.00,114.624, 256.00,256.00S 397.376,480.00, 256.00,480.00z M 382.624,142.624
		l-45.248-45.248L 256.00,178.752l-81.376-81.376l-45.248,45.248L 210.752,224.00l-81.376,81.376l 45.248,45.248L 256.00,269.248l 81.376,81.376l 45.248-45.248
		L 301.248,224.00L 382.624,142.624z" />
<glyph unicode="&#x2f;" d="M 256.00,480.00C 114.624,480.00,0.00,365.376,0.00,224.00s 114.624-256.00, 256.00-256.00s 256.00,114.624, 256.00,256.00S 397.376,480.00, 256.00,480.00z M 256.00,416.00
		c 41.44,0.00, 79.568-13.504, 110.944-35.872L 99.808,113.12C 77.44,144.496, 64.00,182.624, 64.00,224.00C 64.00,329.872, 150.128,416.00, 256.00,416.00z M 256.00,32.00
		c-41.44,0.00-79.568,13.504-110.944,35.872L 412.192,334.88C 434.56,303.504, 448.00,265.376, 448.00,224.00C 448.00,118.128, 361.872,32.00, 256.00,32.00z" />
<glyph unicode="&#x30;" d="M 512.00,32.00L 288.00,256.00L 384.00,352.00L0.00,480.00L 128.00,96.064L 224.00,192.064L 448.00-32.00 	z" />
<glyph unicode="&#x31;" d="M0.00,32.00A64.00,64.00 1620.00 1,0 128.00,32A64.00,64.00 1620.00 1,0 0.00,32zM 96.00,480.00l0.00-64.00 c 194.368,0.00, 352.00-157.616, 352.00-352.00l 64.00,0.00 C 512.00,293.728, 325.712,480.00, 96.00,480.00zM 96.368,351.872C 96.24,351.872, 96.128,351.856, 96.00,351.856l0.00-64.00 c 0.128,0.00, 0.24,0.016, 0.368,0.016
		c 123.664,0.00, 223.936-100.24, 224.00-223.872l 64.00,0.00 C 384.304,222.992, 255.376,351.872, 96.368,351.872zM 96.368,223.872c-0.128,0.00-0.24-0.016-0.368-0.016l0.00-64.00 c 0.128,0.00, 0.24,0.016, 0.368,0.016
		c 52.976,0.00, 95.936-42.928, 96.00-95.872l 64.00,0.00 C 256.304,152.304, 184.688,223.872, 96.368,223.872z" />
<glyph unicode="&#x32;" d="M 512.00-32.00l-73.12,0.00 C 438.88,210.00, 242.00,406.848,0.00,406.848L0.00,480.00 C 282.256,480.00, 512.00,250.32, 512.00-32.00L 512.00-32.00zM 365.68-32.00l-73.12,0.00 c0.00,161.312-131.312,292.56-292.56,292.56L0.00,333.712 C 201.632,333.712, 365.68,169.632, 365.68-32.00
			L 365.68-32.00zM 219.44-32.00L 146.256-32.00 c0.00,80.688-65.568,146.256-146.256,146.256l0.00,73.184 C 120.992,187.44, 219.44,88.992, 219.44-32.00
			L 219.44-32.00zM 73.12-32.00c0.00,40.368-32.688,73.12-73.12,73.12L0.00-32.00 L 73.12-32.00 z" />
<glyph unicode="&#x33;" d="M 505.712,389.712l-80.368-80.368l-84.00,0.00 L 341.344,394.656 l 79.376,79.344C 408.976,477.536, 396.848,480.00, 383.968,480.00
		C 313.312,480.00, 256.00,422.656, 256.00,352.00c0.00-19.712, 4.816-38.16, 12.816-54.88L 12.496,40.88C 4.816,33.12,0.00,22.496,0.00,10.624C0.00-12.88, 19.056-32.00, 42.688-32.00
		c 11.808,0.00, 22.496,4.752, 30.128,12.496l 256.368,256.288C 345.84,228.848, 364.336,224.00, 383.968,224.00c 70.752,0.00, 128.00,57.344, 128.00,128.00
		C 511.968,365.216, 509.472,377.712, 505.712,389.712z" horiz-adv-x="511.9679870605469" />
<glyph unicode="&#x34;" d="M 193.038,224.00A64.346,64.346 1620.00 1,0 321.729,224A64.346,64.346 1620.00 1,0 193.038,224zM 459.349,383.578c-5.534-4.552-12.258-7.593-19.979-7.593c-17.727,0.00-32.173,14.413-32.173,32.35
			c0.00,7.818, 3.137,14.783, 7.786,20.478c-35.696,27.669-78.92,46.297-126.054,52.201C 287.288,464.702, 274.097,451.817, 257.383,451.817
			s-30.098,13.03-31.546,29.567C 178.077,475.19, 134.595,456.224, 98.594,427.558c 4.086-5.437, 6.982-11.872, 6.982-19.207c0.00-17.936-14.333-32.35-32.173-32.35
			c-7.158,0.00-13.577,2.783-18.918,6.837C 20.864,339.115,0.00,284.919,0.00,225.383c0.00-142.896, 115.243-258.767, 257.383-258.767s 257.383,115.871, 257.383,258.767
			C 514.767,285.482, 493.661,339.919, 459.349,383.578z M 257.383,96.692c-71.07,0.00-128.692,57.622-128.692,128.692c0.00,35.567, 14.397,67.676, 37.707,90.985L 257.383,407.354l 90.856-90.856
			C 371.63,293.188, 386.075,260.951, 386.075,225.383C 386.075,154.249, 328.453,96.692, 257.383,96.692z" horiz-adv-x="514.7669067382812" />
<glyph unicode="&#x35;" d="M 512.00,192.496l0.00,64.00 l-76.496,31.872c-2.128,6.00-4.368,11.808-7.12,17.504l 30.88,76.88L 414.00,428.00
		l-76.192-31.376c-5.808,2.816-11.744,5.184-17.872,7.376L 287.504,480.00l-64.00,0.00 l-31.632-75.744c-6.368-2.256-12.496-4.624-18.56-7.504l-76.064,30.56
		L 52.00,382.064l 31.008-75.376C 80.00,300.496, 77.568,294.192, 75.248,287.68L0.00,255.504l0.00-64.00 l 75.312-31.376c 2.32-6.496, 4.816-12.816, 7.808-19.008
		l-30.432-75.872l 45.248-45.248l 75.568,31.12c 6.064-2.88, 12.256-5.184, 18.624-7.376L 224.496-32.00l 64.00,0.00 l 31.68,76.128
		c 6.064,2.256, 12.064,4.624, 17.808,7.376l 76.752-30.752l 45.248,45.248l-31.504,76.368c 2.688,5.744, 4.88,11.568, 7.008,17.504L 512.00,192.496z
		 M 255.504,128.00c-52.992,0.00-96.00,43.008-96.00,96.00s 43.008,96.00, 96.00,96.00s 96.00-43.008, 96.00-96.00S 308.496,128.00, 255.504,128.00z" />
<glyph unicode="&#x36;" d="M 384.00,416.00L 384.00,480.00L 320.00,480.00L 320.00,416.00L 192.00,416.00L 192.00,480.00L 128.00,480.00L 128.00,416.00L0.00,416.00L0.00,352.00L 512.00,352.00L 512.00,416.00 	zM 64.00,160.00L 448.00,160.00L 448.00,96.00L 64.00,96.00zM 64.00,288.00L 448.00,288.00L 448.00,224.00L 64.00,224.00zM 64.00-32.00L 384.00-32.00L 448.00,32.00L 64.00,32.00 	z" />
<glyph unicode="&#x37;" d="M 512.00-32.00L0.00-32.00L0.00,416.00L 64.00,416.00L 64.00,32.00L 448.00,32.00L 448.00,416.00L 512.00,416.00 		zM 96.00,288.00L 160.00,288.00L 160.00,224.00L 96.00,224.00zM 224.00,288.00L 288.00,288.00L 288.00,224.00L 224.00,224.00zM 352.00,288.00L 416.00,288.00L 416.00,224.00L 352.00,224.00zM 96.00,160.00L 160.00,160.00L 160.00,96.00L 96.00,96.00zM 224.00,160.00L 288.00,160.00L 288.00,96.00L 224.00,96.00zM 352.00,96.00L 352.00,160.00L 416.00,160.00 		zM 128.00,384.00L 128.00,448.00 c0.00,17.68, 14.32,32.00, 32.00,32.00s 32.00-14.32, 32.00-32.00l0.00-64.00 c0.00-17.68-14.32-32.00-32.00-32.00S 128.00,366.32, 128.00,384.00zM 320.00,384.00L 320.00,448.00 c0.00,17.68, 14.32,32.00, 32.00,32.00s 32.00-14.32, 32.00-32.00l0.00-64.00 c0.00-17.68-14.32-32.00-32.00-32.00S 320.00,366.32, 320.00,384.00z" />
<glyph unicode="&#x38;" d="M 416.00,416.00l0.00-32.752 c0.00-35.376-28.624-64.00-64.00-64.00s-64.00,28.624-64.00,64.00L 288.00,416.00 l-64.00,0.00 l0.00-32.752 c0.00-35.376-28.624-64.00-64.00-64.00s-64.00,28.624-64.00,64.00L 96.00,416.00 L0.00,416.00 l0.00-448.00 l 512.00,0.00 L 512.00,416.00 
			L 416.00,416.00 z M 160.00,32.00L 96.00,32.00 l0.00,64.00 l 64.00,0.00 L 160.00,32.00 z M 160.00,160.00L 96.00,160.00 l0.00,64.00 l 64.00,0.00 L 160.00,160.00 z M 288.00,32.00l-64.00,0.00 l0.00,64.00 l 64.00,0.00 L 288.00,32.00 z M 288.00,160.00l-64.00,0.00 l0.00,64.00 l 64.00,0.00 L 288.00,160.00 z M 352.00,32.00l0.00,64.00 l 64.00,0.00 L 352.00,32.00z M 416.00,160.00l-64.00,0.00 l0.00,64.00 l 64.00,0.00 L 416.00,160.00 zM 128.00,384.00L 128.00,448.00 c0.00,17.68, 14.32,32.00, 32.00,32.00s 32.00-14.32, 32.00-32.00l0.00-64.00 c0.00-17.68-14.32-32.00-32.00-32.00S 128.00,366.32, 128.00,384.00zM 320.00,384.00L 320.00,448.00 c0.00,17.68, 14.32,32.00, 32.00,32.00s 32.00-14.32, 32.00-32.00l0.00-64.00 c0.00-17.68-14.32-32.00-32.00-32.00S 320.00,366.32, 320.00,384.00z" />
<glyph unicode="&#x39;" d="M 447.968,96.00c-15.504,0.00-29.248-6.256-40.368-15.44l-97.536,69.632C 316.256,162.944, 320.00,176.944, 320.00,192.00
		c0.00,20.688-6.752,39.808-17.872,55.44l 114.096,114.192C 425.712,356.064, 436.224,352.00, 447.968,352.00c 35.376,0.00, 64.00,28.624, 64.00,64.00s-28.624,64.00-64.00,64.00s-64.00-28.624-64.00-64.00
		c0.00-11.808, 4.128-22.256, 9.632-31.744l-114.096-114.192C 263.744,281.312, 244.752,288.00, 224.00,288.00c-36.624,0.00-68.128-20.816-84.32-51.056l-77.056,25.744
		C 59.504,277.056, 47.312,288.00, 32.00,288.00c-17.68,0.00-32.00-14.32-32.00-32.00s 14.32-32.00, 32.00-32.00c 8.064,0.00, 15.248,3.248, 20.88,8.192l 76.624-25.568
		C 128.752,201.808, 128.00,196.992, 128.00,192.00c0.00-52.992, 43.008-96.00, 96.00-96.00c 26.368,0.00, 50.32,10.688, 67.68,27.936l 96.912-69.184
		c-2.752-7.12-4.624-14.688-4.624-22.752c0.00-35.312, 28.624-64.00, 64.00-64.00s 64.00,28.688, 64.00,64.00S 483.344,96.00, 447.968,96.00z" horiz-adv-x="511.9679870605469" />
<glyph unicode="&#x3a;" d="M 255.936,232.688L 512.00,353.312L 512.00,416.00L0.00,416.00L0.00,353.504 		zM 256.064,161.936L0.00,282.88L0.00,32.00L 512.00,32.00L 512.00,282.496 		z" />
<glyph unicode="&#x3b;" d="M 369.808,384.00c 39.312,0.00, 71.872-29.12, 77.376-67.008L 256.064,97.504L 64.816,316.992C 70.32,354.88, 102.88,384.00, 142.192,384.00
			c 32.256,0.00, 61.68-34.624, 61.68-34.624L 256.00,294.00l 52.128,55.376C 308.128,349.376, 337.568,384.00, 369.808,384.00 M 369.808,448.00
			c-47.744,0.00-88.00-25.248-113.808-61.504C 230.192,422.752, 189.936,448.00, 142.192,448.00C 63.744,448.00,0.00,384.128,0.00,305.744l0.00-11.744 L 256.128,0.00L 512.00,294.00l0.00,11.744 
			C 512.00,384.128, 448.256,448.00, 369.808,448.00L 369.808,448.00z" />
<glyph unicode="&#x3c;" d="M 256.00,386.496C 230.192,422.752, 189.936,448.00, 142.192,448.00C 63.744,448.00,0.00,384.128,0.00,305.744l0.00-11.744 L 256.128,0.00L 512.00,294.00l0.00,11.744 
				C 512.00,384.128, 448.256,448.00, 369.808,448.00C 322.064,448.00, 281.808,422.752, 256.00,386.496z" />
<glyph unicode="&#x3d;" d="M 447.632,352.00l-63.184,0.00 L 448.00,415.744L 385.184,480.00l-89.056,0.00 l 63.808-63.744L 294.56,352.00l-75.568,0.00 l 64.944,63.744L 219.744,480.00L 129.248,480.00 
		l 63.744-63.744L 127.632,352.00L 63.504,352.00 l 64.992,63.744L 64.256,480.00L0.00,480.00 l0.00-512.00 l 512.00,0.00 L 512.00,480.00 l-62.752,0.00 L 512.00,416.00L 447.632,352.00z M 448.00,32.00L 64.00,32.00 l0.00,64.00 l 384.00,0.00 L 448.00,32.00 z M 448.00,160.00L 64.00,160.00 l0.00,64.00 l 384.00,0.00 L 448.00,160.00 z" />
<glyph unicode="&#x3e;" d="M 224.00,480.00L0.00,480.00 l0.00-512.00 l 384.00,0.00 L 384.00,320.032 L 224.00,480.00z M 64.00,32.00L 64.00,416.00 l 128.00,0.00 l0.00-128.00 l 128.00,0.00 l0.00-256.00 L 64.00,32.00 z" horiz-adv-x="384" />
<glyph unicode="&#x3f;" d="M 224.00,480.00L0.00,480.00 l0.00-512.00 l 384.00,0.00 L 384.00,320.032 L 224.00,480.00z M 190.688,288.00L 190.688,416.00 l 128.00-128.00L 190.688,288.00 z" horiz-adv-x="384" />
<glyph unicode="&#x40;" d="M 352.256,480.00L0.00,480.00 l0.00-511.008 l 128.816,105.248L 257.12-32.00l 128.192,106.128L 512.00-31.744L 512.00,320.00 L 352.256,480.00z M 448.32,96.992
		l-63.248,51.632l-127.936-105.872l-127.68,105.744l-65.376-51.504c0.00,0.00,0.00,277.744,0.00,320.00c 33.632,0.00, 124.944,0.00, 192.128,0.00l0.00-192.00 L 448.32,224.992 
		C 448.32,181.312, 448.32,96.992, 448.32,96.992z M 320.256,288.992c0.00,24.688,0.00,94.624,0.00,128.00c 25.872-25.872, 102.432-102.368, 128.064-128.00
		C 415.568,288.992, 345.12,288.992, 320.256,288.992z" />
<glyph unicode="&#x41;" d="M 345.744,480.00L0.00,480.00 l0.00-512.00 l 127.632,106.256L 255.872-32.00l 128.064,106.128L 512.00-32.00L 512.00,315.184 L 345.744,480.00z M 288.00,256.00L 288.00,416.00 l 160.00-160.00L 288.00,256.00 z" />
<glyph unicode="&#x42;" d="M 512.00,288.00L 320.00,288.00L 320.00,480.00L 192.00,480.00L 192.00,288.00L0.00,288.00L0.00,160.00L 192.00,160.00L 192.00-32.00L 320.00-32.00L 320.00,160.00L 512.00,160.00 	z" />
<glyph unicode="&#x43;" d="M 256.00,480.00C 114.624,480.00,0.00,365.376,0.00,224.00s 114.624-256.00, 256.00-256.00s 256.00,114.624, 256.00,256.00S 397.376,480.00, 256.00,480.00z M 384.00,192.00l-96.00,0.00 l0.00-96.00 l-64.00,0.00 l0.00,96.00 L 128.00,192.00 l0.00,64.00 l 96.00,0.00 
		L 224.00,352.00 l 64.00,0.00 l0.00-96.00 l 96.00,0.00 L 384.00,192.00 z" />
<glyph unicode="&#x44;" d="M0.00,288.00L 512.00,288.00L 512.00,160.00L0.00,160.00z" />
<glyph unicode="&#x45;" d="M 256.00,480.00C 114.624,480.00,0.00,365.376,0.00,224.00s 114.624-256.00, 256.00-256.00s 256.00,114.624, 256.00,256.00S 397.376,480.00, 256.00,480.00z M 384.00,192.00L 128.00,192.00 l0.00,64.00 l 256.00,0.00 L 384.00,192.00 z" />
<glyph unicode="&#x46;" d="M 512.00,352.00c0.00,70.656-57.376,128.00-128.00,128.00c-47.744,0.00-88.992-26.528-111.008-65.376c0.00,0.032, 0.064,0.064, 0.064,0.096
		c-5.872,0.56-11.568,1.776-17.568,1.776c-106.064,0.00-192.00-85.936-192.00-192.00c0.00-40.432, 12.624-77.872, 33.936-108.752L0.00-32.00l 148.624,96.992
		c 30.56-20.496, 67.312-32.496, 106.88-32.496c 106.064,0.00, 192.00,85.936, 192.00,192.00c0.00,5.536-1.12,10.72-1.632,16.128C 485.12,262.496, 512.00,303.904, 512.00,352.00z
		 M 255.504,96.496c-70.624,0.00-128.00,57.376-128.00,128.00c0.00,70.592, 57.376,128.00, 128.00,128.00c 0.192,0.00, 0.368-0.064, 0.496-0.064c0.00,0.128, 0.064,0.224, 0.064,0.32
		C 256.064,352.496, 256.00,352.256, 256.00,352.00c0.00-11.12, 1.872-21.68, 4.496-31.968l-50.752-50.784c-24.992-24.992-24.992-65.504,0.00-90.496s 65.504-24.992, 90.496,0.00
		l 50.256,50.256c 10.56-2.88, 21.504-4.88, 32.944-4.944C 383.184,153.632, 325.936,96.496, 255.504,96.496z M 384.00,288.00c-35.248,0.00-64.00,28.72-64.00,64.00
		s 28.752,64.00, 64.00,64.00s 64.00-28.72, 64.00-64.00S 419.248,288.00, 384.00,288.00z" />
<glyph unicode="&#x47;" d="M 502.624,470.624c-12.496,12.496-32.944,12.496-45.44,0.00l-65.12-65.184C 365.376,423.184, 334.752,432.00, 304.00,432.00
			c-40.944,0.00-81.872-15.632-113.12-46.88l-96.00-96.00c-54.752-54.688-61.504-139.248-20.368-201.312l-65.12-65.184c-12.496-12.496-12.496-32.752,0.00-45.248
			C 15.632-28.88, 23.808-32.00, 32.00-32.00s 16.368,3.12, 22.624,9.376l 65.12,65.184C 146.432,24.816, 177.248,16.00, 208.00,16.00c 40.944,0.00, 81.872,15.632, 113.12,46.88
			l 95.808,96.00c 54.752,54.688, 61.504,139.248, 20.368,201.312l 65.312,65.184C 515.12,437.872, 515.12,458.128, 502.624,470.624z M 399.808,272.00
			c0.00-25.632-10.00-49.744-28.128-67.872l-95.808-96.00C 257.744,90.00, 233.632,80.00, 208.00,80.00c-14.496,0.00-28.368,3.568-41.12,9.632l 47.744,47.744
			c 12.496,12.496, 12.496,32.752,0.00,45.248s-32.752,12.496-45.248,0.00L 121.632,134.88C 115.504,147.568, 112.00,161.44, 112.00,176.00c0.00,25.632, 10.00,49.744, 28.128,67.872
			l 96.00,96.00C 254.256,358.00, 278.368,368.00, 304.00,368.00c 14.496,0.00, 28.32-3.568, 41.056-9.632l-48.688-48.752c-12.496-12.496-12.496-32.752,0.00-45.248
			c 6.256-6.256, 14.432-9.376, 22.624-9.376c 8.128,0.00, 16.32,3.12, 22.56,9.376l 48.624,48.752C 396.32,300.432, 399.808,286.56, 399.808,272.00z" />
<glyph unicode="&#x48;" d="M 512.00,480.00L 128.00,224.00L 224.00,160.00L0.00-32.00L 384.00,160.00L 288.00,224.00 	z" />
<glyph unicode="&#x49;" d="M 288.00,160.00L 288.00,64.00L 352.00,64.00L 256.00-32.00L 160.00,64.00L 224.00,64.00L 224.00,160.00 		zM 224.00,288.00L 224.00,384.00L 160.00,384.00L 256.00,480.00L 352.00,384.00L 288.00,384.00L 288.00,288.00 		zM 192.00,192.00L 96.00,192.00L 96.00,128.00L0.00,224.00L 96.00,320.00L 96.00,256.00L 192.00,256.00 		zM 320.00,256.00L 416.00,256.00L 416.00,320.00L 512.00,224.00L 416.00,128.00L 416.00,192.00L 320.00,192.00 		z" />
<glyph unicode="&#x4a;" d="M 256.00,128.00L 288.00,160.00L 288.00,64.00L 352.00,64.00L 256.00-32.00L 160.00,64.00L 224.00,64.00L 224.00,160.00 		zM 256.00,319.008L 224.00,288.00L 224.00,384.00L 160.00,384.00L 256.00,480.00L 352.00,384.00L 288.00,384.00L 288.00,288.00 		zM 160.00,224.00L 192.00,192.00L 96.00,192.00L 96.00,128.00L0.00,224.00L 96.00,320.00L 96.00,256.00L 192.00,256.00 		zM 351.008,224.00L 320.00,256.00L 416.00,256.00L 416.00,320.00L 512.00,224.00L 416.00,128.00L 416.00,192.00L 320.00,192.00 		z" />
<glyph unicode="&#x4b;" d="M 256.00,480.00C 114.624,480.00,0.00,365.376,0.00,224.00s 114.624-256.00, 256.00-256.00s 256.00,114.624, 256.00,256.00S 397.376,480.00, 256.00,480.00z M 352.00,160.00l0.00,32.00 l-64.00,0.00 l0.00-64.00 l 32.00,0.00 l-64.00-64.00
		l-64.00,64.00l 32.00,0.00 l0.00,64.00 l-64.00,0.00 l0.00-32.00 l-64.00,64.00l 64.00,64.00l0.00-32.00 l 64.00,0.00 l0.00,64.00 l-32.00,0.00 l 64.00,64.00l 64.00-64.00l-32.00,0.00 l0.00-64.00 l 64.00,0.00 l0.00,32.00 l 64.00-64.00L 352.00,160.00z" />
<glyph unicode="&#x4c;" d="M 288.00,448.00c0.00,17.60-14.40,32.00-32.00,32.00s-32.00-14.40-32.00-32.00l0.00-288.00 l-32.00,0.00 l0.00-64.00 l 32.00,0.00 l0.00-96.00 c0.00-17.60, 14.40-32.00, 32.00-32.00s 32.00,14.40, 32.00,32.00l0.00,96.00 l 32.00,0.00 l0.00,64.00 l-32.00,0.00 L 288.00,448.00 zM 96.00,448.00c0.00,17.60-14.40,32.00-32.00,32.00S 32.00,465.60, 32.00,448.00l0.00-160.00 L0.00,288.00 l0.00-64.00 l 32.00,0.00 l0.00-224.00 c0.00-17.60, 14.40-32.00, 32.00-32.00s 32.00,14.40, 32.00,32.00L 96.00,224.00 l 32.00,0.00 l0.00,64.00 L 96.00,288.00 L 96.00,448.00 zM 512.00,352.00l-32.00,0.00 L 480.00,448.00 c0.00,17.60-14.40,32.00-32.00,32.00s-32.00-14.40-32.00-32.00l0.00-96.00 l-32.00,0.00 l0.00-64.00 l 32.00,0.00 l0.00-288.00 c0.00-17.60, 14.40-32.00, 32.00-32.00s 32.00,14.40, 32.00,32.00L 480.00,288.00 l 32.00,0.00 L 512.00,352.00 z" />
<glyph unicode="&#x4d;" d="M 128.00,160.00c-22.56,0.00-43.872,4.624-64.00,11.776L 64.00-32.00 l 64.00,64.00l 64.00-64.00L 192.00,171.776 C 171.872,164.624, 150.56,160.00, 128.00,160.00zM0.00,352.00A128.00,128.00 1620.00 1,0 256.00,352A128.00,128.00 1620.00 1,0 0.00,352z" horiz-adv-x="256" />
<glyph unicode="&#x4e;" d="M 128.00,160.00c-22.56,0.00-43.872,4.624-64.00,11.744L 64.00-32.00 l 64.00,64.00l 64.00-64.00L 192.00,171.744 C 171.872,164.624, 150.56,160.00, 128.00,160.00zM 128.00,480.00C 57.312,480.00,0.00,422.688,0.00,352.00s 57.312-128.00, 128.00-128.00s 128.00,57.312, 128.00,128.00S 198.688,480.00, 128.00,480.00z M 128.00,288.00c-35.376,0.00-64.00,28.656-64.00,64.00
			s 28.624,64.00, 64.00,64.00s 64.00-28.656, 64.00-64.00S 163.376,288.00, 128.00,288.00z" horiz-adv-x="256" />
<glyph unicode="&#x4f;" d="M 322.128,480.00C 217.504,480.00, 132.368,394.88, 132.368,290.192c0.00-25.056, 5.12-48.816, 13.936-70.688L0.00,73.184L 105.12-32.00l 146.368,146.432
	c 21.872-8.88, 45.632-14.00, 70.624-14.00c 104.688,0.00, 189.872,85.12, 189.872,189.728C 512.00,394.88, 426.816,480.00, 322.128,480.00z M 322.128,164.368
	c-69.312,0.00-125.808,56.496-125.808,125.792c0.00,69.376, 56.496,125.872, 125.808,125.872c 69.44,0.00, 125.936-56.496, 125.936-125.872
	C 448.064,220.88, 391.568,164.368, 322.128,164.368z" />
<glyph unicode="&#x50;" d="M 512.00,416.00l-64.00,0.00 l-64.00,0.00 c0.00,35.376-28.624,64.00-64.00,64.00l-128.00,0.00 C 156.624,480.00, 128.00,451.376, 128.00,416.00L 64.00,416.00 L0.00,416.00 l0.00-64.00 l 64.00,0.00 l0.00-288.00 c0.00-52.992, 43.008-96.00, 96.00-96.00l 192.00,0.00 
			c 52.992,0.00, 96.00,43.008, 96.00,96.00L 448.00,352.00 l 64.00,0.00 L 512.00,416.00 z M 384.00,64.00c0.00-17.632-14.368-32.00-32.00-32.00L 160.00,32.00 c-17.632,0.00-32.00,14.368-32.00,32.00L 128.00,352.00 l 256.00,0.00 L 384.00,64.00 zM 160.00,128.00A32.00,32.00 1620.00 1,0 224.00,128A32.00,32.00 1620.00 1,0 160.00,128zM 160.00,256.00A32.00,32.00 1620.00 1,0 224.00,256A32.00,32.00 1620.00 1,0 160.00,256zM 288.00,128.00A32.00,32.00 1620.00 1,0 352.00,128A32.00,32.00 1620.00 1,0 288.00,128zM 288.00,256.00A32.00,32.00 1620.00 1,0 352.00,256A32.00,32.00 1620.00 1,0 288.00,256z" />
<glyph unicode="&#x51;" d="M 448.00,416.00l-64.00,0.00 c0.00,35.376-28.624,64.00-64.00,64.00l-128.00,0.00 C 156.624,480.00, 128.00,451.376, 128.00,416.00L 64.00,416.00 L0.00,416.00 l0.00-64.00 l 64.00,0.00 l0.00-288.00 c0.00-52.992, 43.008-96.00, 96.00-96.00l 192.00,0.00 
		c 52.992,0.00, 96.00,43.008, 96.00,96.00L 448.00,352.00 l 64.00,0.00 L 512.00,416.00 L 448.00,416.00 z M 192.00,96.00c-17.68,0.00-32.00,14.32-32.00,32.00s 14.32,32.00, 32.00,32.00s 32.00-14.32, 32.00-32.00S 209.68,96.00, 192.00,96.00z M 192.00,224.00
		c-17.68,0.00-32.00,14.32-32.00,32.00s 14.32,32.00, 32.00,32.00s 32.00-14.32, 32.00-32.00S 209.68,224.00, 192.00,224.00z M 320.00,96.00c-17.68,0.00-32.00,14.32-32.00,32.00s 14.32,32.00, 32.00,32.00s 32.00-14.32, 32.00-32.00
		S 337.68,96.00, 320.00,96.00z M 320.00,224.00c-17.68,0.00-32.00,14.32-32.00,32.00s 14.32,32.00, 32.00,32.00s 32.00-14.32, 32.00-32.00S 337.68,224.00, 320.00,224.00z" />
<glyph unicode="&#x52;" d="M 128.00,336.00A16.00,16.00 1620.00 1,0 160.00,336A16.00,16.00 1620.00 1,0 128.00,336zM 224.00,480.00L 32.00,480.00 C 14.32,480.00,0.00,465.68,0.00,448.00l0.00-352.00 c0.00-70.688, 57.312-128.00, 128.00-128.00s 128.00,57.312, 128.00,128.00L 256.00,448.00 C 256.00,465.68, 241.68,480.00, 224.00,480.00z M 80.00,160.00
		c-8.832,0.00-16.00,7.152-16.00,16.00s 7.168,16.00, 16.00,16.00c 8.848,0.00, 16.00-7.152, 16.00-16.00S 88.848,160.00, 80.00,160.00z M 160.00,96.00c-17.68,0.00-32.00,14.32-32.00,32.00s 14.32,32.00, 32.00,32.00s 32.00-14.32, 32.00-32.00
		S 177.68,96.00, 160.00,96.00z M 192.00,224.00l-32.00,0.00 c0.00,17.664-14.336,32.00-32.00,32.00s-32.00-14.336-32.00-32.00L 64.00,224.00 L 64.00,416.00 l 128.00,0.00 L 192.00,224.00 z" horiz-adv-x="256" />
<glyph unicode="&#x53;" d="M 224.00,480.00L 32.00,480.00 C 14.32,480.00,0.00,465.68,0.00,448.00l0.00-352.00 c0.00-70.688, 57.312-128.00, 128.00-128.00s 128.00,57.312, 128.00,128.00L 256.00,448.00 C 256.00,465.68, 241.68,480.00, 224.00,480.00z M 160.00,96.00
	c-17.68,0.00-32.00,14.32-32.00,32.00s 14.32,32.00, 32.00,32.00s 32.00-14.32, 32.00-32.00S 177.68,96.00, 160.00,96.00z M 192.00,224.00l-32.00,0.00 c0.00,17.664-14.336,32.00-32.00,32.00s-32.00-14.336-32.00-32.00L 64.00,224.00 L 64.00,416.00 l 128.00,0.00 L 192.00,224.00 z" horiz-adv-x="256" />
<glyph unicode="&#x54;" d="M 352.00,480.00c-88.368,0.00-160.00-71.632-160.00-160.00c0.00-10.00, 1.184-19.632, 2.944-29.056L0.00,96.00l0.00-128.00 l 192.00,0.00 l0.00,64.00 l 64.00,0.00 l0.00,64.00 l 64.00,0.00 l0.00,64.00 l 2.944,2.944
		C 332.368,161.184, 342.00,160.00, 352.00,160.00c 88.368,0.00, 160.00,71.632, 160.00,160.00S 440.368,480.00, 352.00,480.00z M 352.00,224.00c-5.008,0.00-10.496,0.624-17.376,1.872l-33.12,6.128
		L 256.00,186.496L 256.00,160.00 l-64.00,0.00 l0.00-64.00 L 128.00,96.00 l0.00-64.00 L 64.00,32.00 l0.00,37.504 l 200.00,200.00l-6.128,33.12C 256.592,309.504, 256.00,315.008, 256.00,320.00c0.00,52.944, 43.056,96.00, 96.00,96.00s 96.00-43.056, 96.00-96.00
		S 404.944,224.00, 352.00,224.00zM 320.00,320.00A32.00,32.00 1620.00 1,0 384.00,320A32.00,32.00 1620.00 1,0 320.00,320z" />
<glyph unicode="&#x55;" d="M 352.00,480.00c-88.368,0.00-160.00-71.632-160.00-160.00c0.00-10.00, 1.184-19.632, 2.944-29.056L0.00,96.00l0.00-128.00 l 192.00,0.00 l0.00,64.00 l 64.00,0.00 l0.00,64.00 l 64.00,0.00 l0.00,64.00 
				l 2.944,2.944C 332.368,161.184, 342.00,160.00, 352.00,160.00c 88.368,0.00, 160.00,71.632, 160.00,160.00S 440.368,480.00, 352.00,480.00z M 352.128,288.00c-17.68,0.00-32.00,14.32-32.00,32.00s 14.32,32.00, 32.00,32.00
				s 32.00-14.32, 32.00-32.00S 369.808,288.00, 352.128,288.00z" />
<glyph unicode="&#x56;" d="M 512.00,480.00L 128.00,480.00 l0.00-128.00 C 81.504,352.00,0.00,352.00,0.00,352.00l0.00-384.00 l 384.00,0.00 l0.00,128.00 l 128.00,0.00 L 512.00,480.00 z M 320.00,32.00L 64.00,32.00 L 64.00,224.00 l 64.00,0.00 l0.00-128.00 l 192.00,0.00 C 320.00,67.376, 320.00,32.00, 320.00,32.00z M 448.00,160.00L 192.00,160.00 L 192.00,352.00 l 256.00,0.00 
		L 448.00,160.00 z" />
<glyph unicode="&#x57;" d="M 160.00,415.872c 52.976,0.00, 96.00-43.184, 96.00-96.256c0.00-30.32-13.808-58.192-37.968-76.368c-36.128-27.312-50.72-57.504-55.744-82.88
			L 157.712,160.368 c-5.008,25.376-19.648,55.568-55.744,82.88c-24.128,18.192-38.00,46.064-38.00,76.368C 63.968,372.688, 107.024,415.872, 160.00,415.872 M 160.00,480.00
			C 71.632,480.00,0.00,408.192,0.00,319.632C0.00,267.12, 24.72,221.248, 63.504,192.00c 17.84-13.504, 32.56-30.88, 32.56-54.88l0.00-40.88 l 127.904,0.00 L 223.968,137.12 
			c0.00,24.00, 14.72,41.376, 32.528,54.88C 295.312,221.248, 320.00,267.12, 320.00,319.632C 320.00,408.192, 248.368,480.00, 160.00,480.00L 160.00,480.00zM 96.00,32.00L 224.00,32.00L 224.00-32.00L 96.00-32.00z" horiz-adv-x="320" />
<glyph unicode="&#x58;" d="M 75.056,42.88C 26.624,91.248,0.00,155.504,0.00,224.00C0.00,365.12, 114.816,480.00, 256.00,480.00l 32.00-32.00l-32.00-32.00C 150.128,416.00, 64.00,329.872, 64.00,224.00
			c0.00-51.376, 20.00-99.632, 56.32-135.872l-39.312-5.12L 75.056,42.88L 75.056,42.88zM 256.00-32.00l-32.00,31.872L 256.00,32.00c 105.872,0.00, 192.00,86.128, 192.00,192.00c0.00,51.248-20.00,99.504-56.368,135.808l 39.376,5.184
			l 5.872,40.064C 485.312,356.688, 512.00,292.368, 512.00,224.00C 512.00,82.88, 397.12-32.00, 256.00-32.00L 256.00-32.00z" />
<glyph unicode="&#x59;" d="M 382.128,382.624l-45.12-45.312C 367.248,307.056, 384.00,266.816, 384.00,224.00c0.00-88.256-71.744-160.00-160.00-160.00l0.00,32.00 l-64.00-64.00l 64.00-64.00l0.00,32.00 
			c 123.504,0.00, 224.00,100.496, 224.00,224.00C 448.00,283.936, 424.624,340.256, 382.128,382.624zM 288.00,416.00l-64.00,64.00l0.00-32.00 C 100.496,448.00,0.00,347.504,0.00,224.00c0.00-59.936, 23.376-116.256, 65.872-158.624l 45.12,45.312
			C 80.752,140.944, 64.00,181.184, 64.00,224.00C 64.00,312.256, 135.744,384.00, 224.00,384.00l0.00-32.00 L 288.00,416.00z" horiz-adv-x="448" />
<glyph unicode="&#x5a;" d="M 448.00,192.00c0.00,123.68-100.32,224.00-224.00,224.00C 100.32,416.00,0.00,315.68,0.00,192.00C0.00,280.368, 71.632,352.00, 160.00,352.00s 160.00-71.632, 160.00-160.00l0.00-32.00 l-64.00,0.00 l 128.00-128.00l 128.00,128.00l-64.00,0.00 L 448.00,192.00 
		z" />
<glyph unicode="&#x5b;" d="M 450.468,420.484c-79.307,79.291-217.666,79.355-296.925,0.00L 63.996,330.873L 63.996,415.988 L0.00,415.988 l0.00-191.988 l 191.988,0.00 l0.00,63.996 l-80.363-0.048l 87.243,87.243
			c 55.117,55.181, 151.239,55.181, 206.355-0.064C 432.789,347.56, 447.972,310.939, 447.972,271.949c0.00-39.038-15.183-75.675-42.749-103.322l-48.253-48.237l 45.245-45.229
			l 48.253,48.125C 490.097,163.044, 511.968,215.809, 511.968,271.949C 511.968,328.057, 490.097,380.806, 450.468,420.484zM 295.166-32.00L 249.92,13.309L 295.198,58.538L 340.443,13.229z" horiz-adv-x="511.968017578125" />
<glyph unicode="&#x5c;" d="M 384.00,192.00c0.00-70.56-57.376-128.00-128.00-128.00s-128.00,57.44-128.00,128.00s 57.376,128.00, 128.00,128.00l 37.744-0.432l-18.624-18.624l 45.248-45.248L 416.56,352.00
			l-96.192,96.00l-45.248-45.248L 294.00,384.00L 256.00,384.00 C 150.00,384.00, 64.00,298.064, 64.00,192.00s 86.00-192.00, 192.00-192.00s 192.00,85.936, 192.00,192.00L 384.00,192.00 z" />
<glyph unicode="&#x5e;" d="M 320.00,224.00l0.00-64.00 l 75.808,0.00 l-85.936-85.936c-54.224-54.336-148.944-54.336-203.216,0.00l-45.28-45.184
		C 100.592-10.384, 152.816-32.00, 208.32-32.00c 55.536,0.00, 107.632,21.632, 146.80,60.88l 92.88,92.80L 448.00,32.00 l 64.00,0.00 L 512.00,224.00 L 320.00,224.00 zM 192.00,288.00L 116.192,288.00 l 85.936,85.936c 54.224,54.336, 148.944,54.336, 203.216,0.00l 45.28,45.184C 411.408,458.368, 359.184,480.00, 303.664,480.00
		c-55.536,0.00-107.632-21.632-146.80-60.88L 64.00,326.32L 64.00,416.00 L0.00,416.00 l0.00-192.00 l 192.00,0.00 L 192.00,288.00 z" />
<glyph unicode="&#x60;" d="M 192.00,320.00L 128.00,320.00 L 128.00,352.00 c0.00,17.632, 14.368,32.00, 32.00,32.00l 192.00,0.00 c 17.632,0.00, 32.00-14.368, 32.00-32.00l0.00-32.00 l 64.00,0.00 L 448.00,352.00 c0.00,52.944-43.056,96.00-96.00,96.00L 160.00,448.00 C 107.056,448.00, 64.00,404.944, 64.00,352.00
		l0.00-32.00 L0.00,320.00 l 96.00-128.00L 192.00,320.00zM 416.00,256.00l-96.00-128.00l 64.00,0.00 l0.00-32.00 c0.00-17.632-14.368-32.00-32.00-32.00L 160.00,64.00 c-17.632,0.00-32.00,14.368-32.00,32.00l0.00,32.00 L 64.00,128.00 l0.00-32.00 c0.00-52.944, 43.056-96.00, 96.00-96.00l 192.00,0.00 
		c 52.944,0.00, 96.00,43.056, 96.00,96.00l0.00,32.00 l 64.00,0.00 L 416.00,256.00z" />
<glyph unicode="&#x61;" d="M 448.00,224.00l0.00-32.00 c0.00-17.632-14.368-32.00-32.00-32.00L 191.936,160.00 L 192.00,224.00l-128.00-96.00l 128.00-96.00l-0.064,64.00L 416.00,96.00 c 52.944,0.00, 96.00,43.12, 96.00,96.00l0.00,32.00 L 448.00,224.00 zM 64.00,256.00c0.00,17.68, 14.368,32.00, 32.00,32.00l 224.00,0.00 l0.00-64.00 l 127.872,96.00L 320.00,416.00l0.00-64.00 L 96.00,352.00 c-52.944,0.00-96.00-43.008-96.00-96.00l0.00-32.00 l 64.00,0.00 L 64.00,256.00 z" />
<glyph unicode="&#x62;" d="M 448.00,192.00c0.00-17.632-14.368-32.00-32.00-32.00L 127.872,160.00 l0.00,64.00 L0.00,128.00l 127.872-96.00l0.00,64.00 L 416.00,96.00 c 52.944,0.00, 96.00,43.12, 96.00,96.00L 448.00,192.00 zM 96.00,288.00l 288.00,0.00 l0.00-64.00 l 128.00,96.00l-128.00,96.00l0.00-64.00 L 96.00,352.00 c-52.944,0.00-96.00-43.008-96.00-96.00l 64.00,0.00 C 64.00,273.632, 78.368,288.00, 96.00,288.00z" />
<glyph unicode="&#x63;" d="M 511.968,96.00L 127.872,96.00L 127.872,32.00L0.00,128.00L 127.872,224.00L 127.872,160.00L 511.968,160.00 		zM0.00,288.00L 383.968,288.00L 383.968,224.00L 511.968,320.00L 383.968,416.00L 383.968,352.00L0.00,352.00 		z" horiz-adv-x="511.9679870605469" />
<glyph unicode="&#x66;" d="M 256.00,480.00C 114.624,480.00,0.00,365.376,0.00,224.00s 114.624-256.00, 256.00-256.00s 256.00,114.624, 256.00,256.00S 397.376,480.00, 256.00,480.00z M 288.00,128.00l 32.00,0.00 l-64.00-64.00l-64.00,64.00l 32.00,0.00 L 224.00,320.00 
		l-32.00,0.00 l 64.00,64.00l 64.00-64.00l-32.00,0.00 L 288.00,128.00 z" />
<glyph unicode="&#x67;" d="M 192.00,192.00L 96.00,192.00L 96.00,128.00L0.00,224.00L 96.00,320.00L 96.00,256.00L 192.00,256.00 		zM 320.00,256.00L 416.00,256.00L 416.00,320.00L 512.00,224.00L 416.00,128.00L 416.00,192.00L 320.00,192.00 		z" />
<glyph unicode="&#x69;" d="M 512.00,224.00c0.00,141.376-114.624,256.00-256.00,256.00S0.00,365.376,0.00,224.00s 114.624-256.00, 256.00-256.00S 512.00,82.624, 512.00,224.00z M 160.00,192.00l0.00-32.00 l-64.00,64.00l 64.00,64.00l0.00-32.00 
		l 192.00,0.00 l0.00,32.00 l 64.00-64.00l-64.00-64.00l0.00,32.00 L 160.00,192.00 z" />
<glyph unicode="&#x6a;" d="M 512.00,288.00L 256.00,288.00L 352.00,384.00L 256.00,480.00L0.00,224.00L 256.00-32.00L 352.00,64.00L 256.00,160.00L 512.00,160.00 z" />
<glyph unicode="&#x6b;" d="M 512.00,224.00c0.00,141.376-114.624,256.00-256.00,256.00C 114.608,480.00,0.00,365.376,0.00,224.00c0.00-141.392, 114.608-256.00, 256.00-256.00C 397.376-32.00, 512.00,82.608, 512.00,224.00z
	 M 128.00,224.00l 128.00,128.00l0.00-96.00 l 128.00,0.00 l0.00-64.00 l-128.00,0.00 l0.00-96.00 L 128.00,224.00z" />
<glyph unicode="&#x6c;" d="M 256.00-32.00c 141.376,0.00, 256.00,114.624, 256.00,256.00S 397.376,480.00, 256.00,480.00S0.00,365.376,0.00,224.00S 114.624-32.00, 256.00-32.00z M 160.00,288.00l0.00-32.00 l 256.00,0.00 l0.00-64.00 L 160.00,192.00 l0.00-32.00 l-64.00,64.00
		L 160.00,288.00z" />
<glyph unicode="&#x6d;" d="M0.00,160.00L 256.00,160.00L 160.00,64.00L 256.00-32.00L 512.00,224.00L 256.00,480.00L 160.00,384.00L 256.00,288.00L0.00,288.00 z" />
<glyph unicode="&#x6e;" d="M0.00,224.00c0.00-141.376, 114.624-256.00, 256.00-256.00c 141.392,0.00, 256.00,114.624, 256.00,256.00c0.00,141.392-114.608,256.00-256.00,256.00C 114.624,480.00,0.00,365.392,0.00,224.00z M 384.00,224.00
	l-128.00-128.00l0.00,96.00 L 128.00,192.00 l0.00,64.00 l 128.00,0.00 L 256.00,352.00 L 384.00,224.00z" />
<glyph unicode="&#x6f;" d="M 256.00,480.00C 114.624,480.00,0.00,365.376,0.00,224.00s 114.624-256.00, 256.00-256.00s 256.00,114.624, 256.00,256.00S 397.376,480.00, 256.00,480.00z M 352.00,160.00l0.00,32.00 L 96.00,192.00 l0.00,64.00 l 256.00,0.00 l0.00,32.00 l 64.00-64.00
		L 352.00,160.00z" />
<glyph unicode="&#x70;" d="M 320.00-32.00L 320.00,224.00L 416.00,128.00L 512.00,224.00L 256.00,480.00L0.00,224.00L 96.00,128.00L 192.00,224.00L 192.00-32.00 z" />
<glyph unicode="&#x71;" d="M 256.00-32.00c 141.376,0.00, 256.00,114.624, 256.00,256.00c0.00,141.392-114.624,256.00-256.00,256.00C 114.608,480.00,0.00,365.392,0.00,224.00C0.00,82.624, 114.608-32.00, 256.00-32.00z M 256.00,352.00
	l 128.00-128.00l-96.00,0.00 l0.00-128.00 l-64.00,0.00 l0.00,128.00 L 128.00,224.00 L 256.00,352.00z" />
<glyph unicode="&#x72;" d="M0.00,224.00c0.00-141.376, 114.624-256.00, 256.00-256.00s 256.00,114.624, 256.00,256.00S 397.376,480.00, 256.00,480.00S0.00,365.376,0.00,224.00z M 320.00,320.00l-32.00,0.00 l0.00-256.00 l-64.00,0.00 L 224.00,320.00 l-32.00,0.00 
		l 64.00,64.00L 320.00,320.00z" />
<glyph unicode="&#x73;" d="M 192.00,480.00L 192.00,224.00L 96.00,320.00L0.00,224.00L 256.00-32.00L 512.00,224.00L 416.00,320.00L 320.00,224.00L 320.00,480.00 z" />
<glyph unicode="&#x74;" d="M 256.00,480.00C 114.624,480.00,0.00,365.376,0.00,224.00c0.00-141.392, 114.624-256.00, 256.00-256.00c 141.392,0.00, 256.00,114.608, 256.00,256.00C 512.00,365.376, 397.392,480.00, 256.00,480.00z M 256.00,96.00
	l-128.00,128.00l 96.00,0.00 L 224.00,352.00 l 64.00,0.00 l0.00-128.00 l 96.00,0.00 L 256.00,96.00z" />
<glyph unicode="&#x75;" d="M 512.00,224.00c0.00,141.376-114.624,256.00-256.00,256.00S0.00,365.376,0.00,224.00s 114.624-256.00, 256.00-256.00S 512.00,82.624, 512.00,224.00z M 192.00,128.00l 32.00,0.00 L 224.00,384.00 l 64.00,0.00 l0.00-256.00 l 32.00,0.00 
		l-64.00-64.00L 192.00,128.00z" />
<glyph unicode="&#x76;" d="M 256.00,480.00C 114.624,480.00,0.00,365.376,0.00,224.00s 114.624-256.00, 256.00-256.00s 256.00,114.624, 256.00,256.00S 397.376,480.00, 256.00,480.00z M 256.496,161.056
				c-35.008,0.00-63.44,28.368-63.44,63.44c0.00,35.12, 28.432,63.504, 63.44,63.504C 291.632,288.00, 320.00,259.632, 320.00,224.496
				C 320.00,189.44, 291.632,161.056, 256.496,161.056z" />
<glyph unicode="&#x77;" d="M 256.00,480.00C 114.624,480.00,0.00,365.376,0.00,224.00s 114.624-256.00, 256.00-256.00s 256.00,114.624, 256.00,256.00S 397.376,480.00, 256.00,480.00z M 256.00,416.00
		c 83.312,0.00, 153.68-53.664, 180.256-128.00L 75.744,288.00 C 102.32,362.336, 172.688,416.00, 256.00,416.00z M 256.00,192.00c-17.68,0.00-32.00,14.32-32.00,32.00s 14.32,32.00, 32.00,32.00s 32.00-14.32, 32.00-32.00
		S 273.68,192.00, 256.00,192.00z M 64.00,224.00c 87.44,0.00, 158.256-84.256, 159.744-188.752C 133.248,50.752, 64.00,129.184, 64.00,224.00z M 288.256,35.248
		C 289.744,139.744, 360.56,224.00, 448.00,224.00C 448.00,129.184, 378.752,50.752, 288.256,35.248z" />
<glyph unicode="&#x78;" d="M 192.00,224.00c 35.376,0.00, 64.00,28.656, 64.00,64.00L 256.00,416.00 c0.00,35.344-28.624,64.00-64.00,64.00S 128.00,451.344, 128.00,416.00l0.00-128.00 C 128.00,252.656, 156.624,224.00, 192.00,224.00zM 256.00,32.00l-32.00,0.00 l0.00,67.248 C 314.624,114.56, 384.00,193.088, 384.00,288.00l0.00,31.008 c0.00,17.68-14.32,32.00-32.00,32.00s-32.00-14.32-32.00-32.00L 320.00,288.00 
			c0.00-70.592-57.376-128.00-128.00-128.00s-128.00,57.408-128.00,128.00l0.00,31.008 c0.00,17.68-14.32,32.00-32.00,32.00s-32.00-14.32-32.00-32.00L0.00,288.00 c0.00-94.912, 69.376-173.44, 160.00-188.752L 160.00,32.00 L 128.00,32.00 
			c-35.376,0.00-64.00-28.624-64.00-64.00l 256.00,0.00 C 320.00,3.376, 291.376,32.00, 256.00,32.00z" horiz-adv-x="384" />
<glyph unicode="&#x79;" d="M 480.00,192.00l-32.00,0.00 l0.00,64.00 c0.00,106.00-86.00,192.00-192.00,192.00S 64.00,362.00, 64.00,256.00l0.00-64.00 L 32.00,192.00 c-17.68,0.00-32.00-14.32-32.00-32.00l0.00-128.00 c0.00-17.68, 14.32-32.00, 32.00-32.00l 96.00,0.00 L 128.00,256.00 
	c0.00,70.624, 57.376,128.00, 128.00,128.00s 128.00-57.376, 128.00-128.00l0.00-256.00 l 96.00,0.00 c 17.68,0.00, 32.00,14.32, 32.00,32.00l0.00,128.00 C 512.00,177.68, 497.68,192.00, 480.00,192.00z" />
<glyph unicode="&#x7a;" d="M 128.00,96.00c-70.688,0.00-128.00,57.312-128.00,128.00s 57.312,128.00, 128.00,128.00L 128.00,96.00 zM 192.00,352.00L 320.00,416.00L 320.00,32.00L 192.00,96.00 			zM 384.064,96.064l0.00,64.00 c 5.312,0.00, 10.688,0.688, 16.064,2.00C 428.192,169.184, 448.00,194.688, 448.00,224.00
			s-19.808,54.752-48.192,61.936c-5.056,1.248-10.432,1.936-15.744,1.936l0.00,64.00 c 10.496,0.00, 21.008-1.312, 31.312-3.808C 472.32,333.568, 512.00,282.624, 512.00,224.00
			c0.00-58.688-39.68-109.68-96.432-124.064C 404.944,97.376, 394.432,96.064, 384.064,96.064L 384.064,96.064z" />
<glyph unicode="&#x7b;" d="M 128.00,96.00c-70.688,0.00-128.00,57.312-128.00,128.00s 57.312,128.00, 128.00,128.00L 128.00,96.00 zM 192.00,352.00L 320.00,416.00L 320.00,32.00L 192.00,96.00 			zM 512.00,192.00L 384.00,192.00L 384.00,256.00L 512.00,256.00 		z" />
<glyph unicode="&#x7c;" d="M0.00,480.00L 384.00,224.00L0.00-32.00 	z" horiz-adv-x="384" />
<glyph unicode="&#x7d;" d="M0.00,480.00L 128.00,480.00L 128.00-32.00L0.00-32.00zM 256.00,480.00L 384.00,480.00L 384.00-32.00L 256.00-32.00z" horiz-adv-x="384" />
<glyph unicode="&#xe000;" d="M0.00,480.00L 512.00,480.00L 512.00-32.00L0.00-32.00z" />
<glyph unicode="&#xe001;" d="M0.00,160.00L 256.00,480.00L 512.00,160.00 		zM0.00,96.00L 511.312,96.00L 511.312-32.00L0.00-32.00z" />
<glyph unicode="&#xe002;" d="M 512.00-32.00L 128.00,224.00L 512.00,480.00 		zM0.00,416.00L 128.00,416.00L 128.00,32.00L0.00,32.00z" />
<glyph unicode="&#xe003;" d="M0.00,480.00L 384.00,224.00L0.00-32.00 		zM 384.00,416.00L 512.00,416.00L 512.00,32.00L 384.00,32.00z" />
<glyph unicode="&#xe004;" d="M 256.00,480.00C 114.624,480.00,0.00,365.376,0.00,224.00s 114.624-256.00, 256.00-256.00s 256.00,114.624, 256.00,256.00S 397.376,480.00, 256.00,480.00z M 160.00,96.00L 160.00,352.00 l 256.128-128.00L 160.00,96.00z
		" />
<glyph unicode="&#xe008;" d="M 470.624,54.624L 365.248,160.00L 320.00,114.752L 425.376,9.376L 384.00-32.00L 512.00-32.00L 512.00,96.00 		zM 41.376,393.376L 146.752,288.00L 192.00,333.248L 86.624,438.624L 128.00,480.00L0.00,480.00L0.00,352.00 		zM 425.376,438.624L 320.00,333.248L 365.248,288.00L 470.624,393.376L 512.00,352.00L 512.00,480.00L 384.00,480.00 		zM 192.00,114.752L 146.752,160.00L 41.376,54.624L0.00,96.00L0.00-32.00L 128.00-32.00L 86.624,9.376 		z" />
<glyph unicode="&#xe009;" d="M 256.00,480.00L 128.00,480.00 C 57.312,480.00,0.00,422.688,0.00,352.00l0.00-256.00 c0.00-70.688, 57.312-128.00, 128.00-128.00l 128.00,0.00 c 70.688,0.00, 128.00,57.312, 128.00,128.00L 384.00,352.00 
		C 384.00,422.688, 326.688,480.00, 256.00,480.00z M 192.00-0.992c-18.224,0.00-32.992,14.752-32.992,32.992s 14.784,32.992, 32.992,32.992s 32.992-14.752, 32.992-32.992
		S 210.224-0.992, 192.00-0.992z M 320.00,96.00L 64.00,96.00 L 64.00,352.00 c0.00,35.248, 28.72,64.00, 64.00,64.00l 128.00,0.00 c 35.248,0.00, 64.00-28.752, 64.00-64.00L 320.00,96.00 z" horiz-adv-x="384" />
<glyph unicode="&#xe00a;" d="M 512.00,288.00l-64.00,0.00 l0.00,32.00 c0.00,17.568-14.368,32.00-32.00,32.00L 32.00,352.00 c-17.632,0.00-32.00-14.432-32.00-32.00l0.00-192.00 c0.00-17.568, 14.368-32.00, 32.00-32.00l 384.00,0.00 
	c 17.632,0.00, 32.00,14.432, 32.00,32.00l0.00,32.00 l 64.00,0.00 L 512.00,288.00 z M 384.00,160.00L 64.00,160.00 L 64.00,288.00 l 320.00,0.00 L 384.00,160.00 z" />
<glyph unicode="&#xe00b;" d="M 512.00,288.00l-64.00,0.00 l0.00,32.00 c0.00,17.60-14.368,32.00-32.00,32.00L 32.00,352.00 c-17.632,0.00-32.00-14.40-32.00-32.00l0.00-192.00 c0.00-17.632, 14.368-32.00, 32.00-32.00l 384.00,0.00 c 17.632,0.00, 32.00,14.368, 32.00,32.00l0.00,32.00 l 64.00,0.00 
		L 512.00,288.00 z M 384.00,160.00l-128.00,0.00 l0.00,128.00 l 128.00,0.00 L 384.00,160.00 z" />
<glyph unicode="&#xe00c;" d="M 448.00,288.00l0.00,32.00 c0.00,17.60-14.40,32.00-32.00,32.00L 32.00,352.00 c-17.60,0.00-32.00-14.40-32.00-32.00l0.00-192.00 c0.00-17.60, 14.40-32.00, 32.00-32.00l 384.00,0.00 c 17.60,0.00, 32.00,14.40, 32.00,32.00l0.00,32.00 l 64.00,0.00 l0.00,128.00 L 448.00,288.00 z" />
<glyph unicode="&#xe00d;" d="M 448.00,288.00l0.00,32.00 c0.00,17.60-14.40,32.00-32.00,32.00L 32.00,352.00 c-17.60,0.00-32.00-14.40-32.00-32.00l0.00-64.00 l 101.584,0.00 c 13.20,37.264, 48.64,64.00, 90.416,64.00l0.00-32.00 l 64.00,0.00 l0.00-32.00 l-64.00,0.00 l0.00-64.00 l 64.00,0.00 l0.00-32.00 l-64.00,0.00 l0.00-32.00 
	c-41.776,0.00-77.232,26.736-90.416,64.00L0.00,192.00 l0.00-64.00 c0.00-17.60, 14.40-32.00, 32.00-32.00l 384.00,0.00 c 17.60,0.00, 32.00,14.40, 32.00,32.00l0.00,32.00 l 64.00,0.00 l0.00,128.00 L 448.00,288.00 z" />
<glyph unicode="&#xe00e;" d="M 290.00,257.936c 12.752-12.784, 16.128-30.88, 11.504-47.088L 384.00,352.00l-139.248-82.224
				C 260.496,273.664, 277.68,270.256, 290.00,257.936zM 222.128,190.064c-12.368,12.336-15.744,29.60-11.872,45.376L 128.00,96.00l 141.312,82.56
				C 253.056,173.872, 234.944,177.248, 222.128,190.064zM 256.00,416.00c 105.872,0.00, 192.00-86.128, 192.00-192.00s-86.128-192.00-192.00-192.00S 64.00,118.128, 64.00,224.00S 150.128,416.00, 256.00,416.00 M 256.00,480.00
			C 114.624,480.00,0.00,365.376,0.00,224.00s 114.624-256.00, 256.00-256.00s 256.00,114.624, 256.00,256.00S 397.376,480.00, 256.00,480.00L 256.00,480.00z" />
<glyph unicode="&#xe00f;" d="M0.00,288.00L 512.00,288.00L 512.00-32.00L0.00-32.00zM 288.00,352.00L 512.00,352.00L 448.00,480.00L 288.00,480.00 		zM 224.00,480.00L 64.00,480.00L0.00,352.00L 224.00,352.00 		z" />
<glyph unicode="&#xe010;" d="M 256.00,415.968L 256.00,480.00 L0.00,480.00 l0.00-448.00 c0.00-35.376, 28.624-64.00, 64.00-64.00l 384.00,0.00 c 35.312,0.00, 64.00,28.624, 64.00,64.00L 512.00,415.968 L 256.00,415.968 z M 448.00,223.936L 448.00,32.00 L 64.00,32.00 L 64.00,224.00 l 384.00,0.00 L 448.00,223.936 z
	 M 448.00,288.00L 64.00,288.00 L 64.00,416.00 l 128.00,0.00 l0.00-0.032 L 192.00,352.00 l 256.00,0.00 L 448.00,288.00 z" />
<glyph unicode="&#xe011;" d="M 512.00,0.00c0.00-17.68-14.32-32.00-32.00-32.00L 32.00-32.00 c-17.68,0.00-32.00,14.32-32.00,32.00L0.00,288.00 l 512.00,0.00 L 512.00,0.00 zM 192.00,415.968L 192.00,480.00L0.00,480.00L0.00,352.00L 512.00,352.00L 512.00,415.968 		z" />
<glyph unicode="&#xe012;" d="M 477.504,96.00C 499.44,133.68, 512.00,177.248, 512.00,224.00c0.00,141.376-114.624,256.00-256.00,256.00S0.00,365.376,0.00,224.00s 114.624-256.00, 256.00-256.00
		c 70.688,0.00, 134.688,28.624, 180.992,75.008L 391.68,88.32C 356.944,53.504, 308.944,32.00, 256.00,32.00C 150.128,32.00, 64.00,118.128, 64.00,224.00S 150.128,416.00, 256.00,416.00s 192.00-86.128, 192.00-192.00
		c0.00-22.752-4.368-44.496-11.68-64.752L 435.808,160.00L 384.00,160.00 L 384.00,351.312 l-128.00,0.00 c-70.688,0.00-128.00-57.312-128.00-128.00s 57.312-128.00, 128.00-128.00c 29.376,0.00, 56.128,10.32, 77.744,26.944
		C 345.376,106.752, 363.12,96.00, 384.00,96.00L 477.504,96.00 z M 320.00,255.872l0.00-32.56 c0.00-35.312-28.752-64.00-64.00-64.00s-64.00,28.688-64.00,64.00s 28.752,64.00, 64.00,64.00l 64.00,0.00 L 320.00,255.872 z" />
<glyph unicode="&#xe013;" d="M 147.392-32.00c-37.744,0.00-75.504,14.368-104.32,43.056c-57.44,57.568-57.44,151.184,0.00,208.624l 129.808,127.008
		c 7.376,7.44, 11.632,17.632, 11.632,28.56c0.00,10.88-4.256,21.12-11.872,28.88C 156.768,420.00, 130.896,419.936, 114.896,404.064
		C 99.136,388.192, 99.136,362.32, 115.008,346.432L 69.696,301.12C 28.896,342.00, 28.896,408.432, 69.648,449.312c 40.992,40.944, 107.376,40.88, 148.224,0.064
		c 19.872-19.808, 30.752-46.192, 30.752-74.192c0.00-28.00-10.88-54.32-30.752-74.064l-129.776-126.944c-32.32-32.256-32.32-85.248, 0.32-117.808
		c 32.496-32.56, 85.504-32.496, 118.128,0.00c 32.464,32.56, 32.464,85.568,0.00,118.064l-22.752,22.624l 69.60,69.568l 45.248-45.248l-26.752-26.752
		c 36.256-56.992, 29.632-133.744-20.128-183.504C 222.992-17.632, 185.136-32.00, 147.392-32.00L 147.392-32.00z" horiz-adv-x="298.6080017089844" />
<glyph unicode="&#xe014;" d="M 32.00,224.00c 17.68,0.00, 32.00-14.32, 32.00-32.00l0.00-128.00 c0.00-17.68-14.32-32.00-32.00-32.00L0.00,32.00 l0.00-64.00 l 256.00,0.00 l0.00,64.00 l-31.872,0.00 C 206.496,32.00, 192.00,46.32, 192.00,64.00l-0.064,224.00L0.00,288.00 
			l0.00-64.00 L 32.00,224.00 zM 64.00,416.00A64.00,64.00 1620.00 1,0 192.00,416A64.00,64.00 1620.00 1,0 64.00,416z" horiz-adv-x="256" />
<glyph unicode="&#xe015;" d="M 89.60,0.00A32.00,32.00 1620.00 1,0 153.60,0A32.00,32.00 1620.00 1,0 89.60,0zM 122.816,64.368c-21.376,0.00-41.44,8.32-56.56,23.44s-23.44,35.184-23.44,56.56s 8.32,41.44, 23.44,56.56
			l 107.008,107.008C 185.376,320.032, 192.00,336.096, 192.00,353.184s-6.624,33.152-18.752,45.248c-24.944,24.96-65.536,25.008-90.464,0.00
			C 70.656,386.336, 64.00,370.288, 64.00,353.184L0.00,353.184 c0.00,34.192, 13.344,66.352, 37.568,90.544c 48.32,48.368, 132.56,48.336, 180.944-0.032
			C 242.688,419.552, 256.00,387.408, 256.00,353.184c0.00-34.192-13.312-66.32-37.504-90.496L 111.504,155.68c-6.224-6.256-6.224-16.368,0.00-22.624
			c 6.256-6.256, 16.368-6.256, 22.624,0.00c 4.064,4.064, 4.688,8.88, 4.688,11.312l 64.00,0.00 c0.00-21.376-8.32-41.44-23.44-56.56
			S 144.192,64.368, 122.816,64.368L 122.816,64.368z" horiz-adv-x="256" />
<glyph unicode="&#xe016;" d="M 384.00,480.00l-64.00,0.00 l-64.00,0.00 l-64.00,0.00 L 128.00,480.00 C 57.312,480.00,0.00,422.688,0.00,352.00s 57.312-128.00, 128.00-128.00l0.00-256.00 l 64.00,0.00 L 192.00,416.00 l 64.00,0.00 l0.00-448.00 l 64.00,0.00 L 320.00,416.00 l 64.00,0.00 L 384.00,480.00 z" horiz-adv-x="384" />
<glyph unicode="&#xe017;" d="M 448.00,288.00L 448.00,352.00 l-80.064,0.00 l 16.00,128.00l-64.00,0.00 l-16.00-128.00l-127.968,0.00 l 16.00,128.00l-64.00,0.00 l-16.00-128.00L0.00,352.00 l0.00-64.00 l 103.968,0.00 L 88.00,160.00L0.00,160.00 l0.00-64.00 l 80.00,0.00 l-16.00-128.00l 64.00,0.00 l 16.00,128.00l 127.968,0.00 l-16.00-128.00L 320.00-32.00 
		l 16.00,128.00l 112.00,0.00 l0.00,64.00 l-104.00,0.00 l 15.936,128.00L 448.00,288.00 z M 279.968,160.00L 152.00,160.00 l 15.968,128.00l 127.968,0.00 L 279.968,160.00z" horiz-adv-x="448" />
<glyph unicode="&#xe018;" d="M 512.00,32.00L 512.00,224.00 l-128.00,0.00 c0.00,70.56, 57.376,128.00, 128.00,128.00L 512.00,416.00 c-105.872,0.00-192.00-86.128-192.00-192.00l0.00-192.00 L 512.00,32.00 zM 192.00,32.00L 192.00,224.00 L 64.00,224.00 c0.00,70.56, 57.376,128.00, 128.00,128.00L 192.00,416.00 C 86.128,416.00,0.00,329.872,0.00,224.00l0.00-192.00 L 192.00,32.00 z" />
<glyph unicode="&#xe019;" d="M0.00,416.00l0.00-192.00 l 128.00,0.00 c0.00-70.56-57.376-128.00-128.00-128.00l0.00-64.00 c 105.872,0.00, 192.00,86.128, 192.00,192.00L 192.00,416.00 L0.00,416.00 zM 320.00,416.00l0.00-192.00 l 128.00,0.00 c0.00-70.56-57.376-128.00-128.00-128.00l0.00-64.00 c 105.872,0.00, 192.00,86.128, 192.00,192.00L 512.00,416.00 L 320.00,416.00 z" />
<glyph unicode="&#xe01a;" d="M 512.00,32.00L 512.00,416.00L 320.00,224.00L 320.00,32.00 		zM 192.00,32.00L 192.00,416.00L0.00,224.00L0.00,32.00 		z" />
<glyph unicode="&#xe01b;" d="M0.00,416.00L0.00,32.00L 192.00,224.00L 192.00,416.00 		zM 320.00,416.00L 320.00,32.00L 512.00,224.00L 512.00,416.00 		z" />
<glyph unicode="&#xe01c;" d="M 512.00,416.00L0.00,416.00L0.00,480.00L 512.00,480.00 		zM 320.00,288.00L0.00,288.00L0.00,352.00L 320.00,352.00 		zM 512.00,96.00L0.00,96.00L0.00,160.00L 512.00,160.00 		zM 384.00-32.00L0.00-32.00L0.00,32.00L 384.00,32.00 		zM 512.00,0.00c0.00-17.68-14.352-32.00-31.968-32.00C 462.304-32.00, 448.00-17.68, 448.00,0.00s 14.304,32.00, 32.032,32.00C 497.648,32.00, 512.00,17.68, 512.00,0.00z" />
<glyph unicode="&#xe01d;" d="M 512.00,416.00L0.00,416.00L0.00,480.00L 512.00,480.00 		zM 320.00,288.00L0.00,288.00L0.00,352.00L 320.00,352.00 		zM 512.00,160.00L0.00,160.00L0.00,224.00L 512.00,224.00 		zM0.00,0.00A32.00,32.00 1620.00 1,0 64.00,0A32.00,32.00 1620.00 1,0 0.00,0zM 256.00,0.00A32.00,32.00 1620.00 1,0 320.00,0A32.00,32.00 1620.00 1,0 256.00,0zM 128.00,0.00A32.00,32.00 1620.00 1,0 192.00,0A32.00,32.00 1620.00 1,0 128.00,0z" />
<glyph unicode="&#xe01e;" d="M0.00,443.431A36.569,36.569 1620.00 1,0 73.138,443.431A36.569,36.569 1620.00 1,0 0.00,443.431zM0.00,297.136A36.569,36.569 1620.00 1,0 73.138,297.13599999999997A36.569,36.569 1620.00 1,0 0.00,297.13599999999997zM0.00,150.859A36.569,36.569 1620.00 1,0 73.138,150.85899999999998A36.569,36.569 1620.00 1,0 0.00,150.85899999999998zM0.00,4.565A36.569,36.569 1620.00 1,0 73.138,4.564999999999998A36.569,36.569 1620.00 1,0 0.00,4.564999999999998zM 146.295,480.00L 585.106,480.00L 585.106,406.862L 146.295,406.862zM 146.295,333.705L 585.106,333.705L 585.106,260.567L 146.295,260.567zM 146.295,187.429L 585.106,187.429L 585.106,114.29L 146.295,114.29zM 146.295,41.134L 585.106,41.134L 585.106-32.005L 146.295-32.005z" horiz-adv-x="585.1062622070312" />
<glyph unicode="&#xe01f;" d="M0.00,443.429A36.571,36.571 1620.00 1,0 73.143,443.429A36.571,36.571 1620.00 1,0 0.00,443.429zM 146.286,480.00L 585.143,480.00L 585.143,406.857L 146.286,406.857zM 146.286,297.143A36.571,36.571 1620.00 1,0 219.429,297.14300000000003A36.571,36.571 1620.00 1,0 146.286,297.14300000000003zM 292.571,333.714L 585.143,333.714L 585.143,260.571L 292.571,260.571zM 146.286,4.571A36.571,36.571 1620.00 1,0 219.429,4.571000000000026A36.571,36.571 1620.00 1,0 146.286,4.571000000000026zM 292.571,41.143L 585.143,41.143L 585.143-32.00L 292.571-32.00zM 292.571,150.857A36.571,36.571 1620.00 1,0 365.714,150.85700000000003A36.571,36.571 1620.00 1,0 292.571,150.85700000000003zM 438.857,187.429L 585.143,187.429L 585.143,114.286L 438.857,114.286z" horiz-adv-x="585.1428833007812" />
<glyph unicode="&#xe020;" d="M 64.00,480.00C 28.80,480.00,0.00,451.20,0.00,416.00l0.00-384.00 c0.00-35.20, 28.80-64.00, 64.00-64.00l 384.00,0.00 L 448.00,480.00 L 64.00,480.00 z M 384.00,32.00L 128.00,32.00 L 128.00,416.00 l 64.00,0.00 l0.00-128.00 l 64.00,64.00l 64.00-64.00L 320.00,416.00 l 64.00,0.00 L 384.00,32.00 z" horiz-adv-x="448" />
<glyph unicode="&#xe021;" d="M 512.00,416.00l-64.00,0.00 L 448.00,480.00 L 64.00,480.00 C 28.80,480.00,0.00,451.20,0.00,416.00l0.00-384.00 c0.00-35.20, 28.80-64.00, 64.00-64.00l 384.00,0.00 L 448.00,288.00 l 64.00,0.00 l-64.00,64.00L 512.00,416.00z M 384.00,32.00L 128.00,32.00 L 128.00,416.00 l 256.00,0.00 L 384.00,32.00 zM 192.00,352.00L 320.00,352.00L 320.00,288.00L 192.00,288.00z" />
<glyph unicode="&#xe022;" d="M 256.00,384.00c0.00,0.00-64.00,64.00-256.00,64.00l0.00-384.00 c 194.00,0.00, 256.00-64.00, 256.00-64.00s 62.00,64.00, 256.00,64.00L 512.00,448.00 C 320.00,448.00, 256.00,384.00, 256.00,384.00z M 64.00,384.00
		c 81.344-6.816, 131.248-25.632, 160.00-40.88l0.00-257.744 c-28.752,15.184-78.656,34.00-160.00,40.88L 64.00,384.00 z M 448.00,126.256c-81.376-6.88-131.248-25.664-160.00-40.88
		L 288.00,343.12 C 316.752,358.368, 366.624,377.184, 448.00,384.00L 448.00,126.256 z" />
<glyph unicode="&#xe023;" d="M 474.496,442.496C 449.568,467.504, 416.816,480.00, 384.00,480.00c-32.752,0.00-65.504-12.496-90.496-37.504L 0.496,149.504L0.00-32.00
		l 180.992,0.00 l 293.504,293.504C 524.496,311.504, 524.496,392.496, 474.496,442.496z M 154.496,32.00L 128.00,32.00 l0.00,64.00 L 64.368,96.00 l 0.064,26.88L 338.752,397.248l0.00,0.00l 90.496-90.496
		l0.00,0.00L 154.496,32.00z" />
<glyph unicode="&#xe024;" d="M 474.496,442.496C 449.504,467.504, 416.752,480.00, 384.00,480.00s-65.504-12.496-90.496-37.504L 0.496,149.504L0.00-32.00l 180.992,0.00 
		l 293.504,293.504C 524.496,311.504, 524.496,392.496, 474.496,442.496z M 154.496,32.00L 153.808,32.00 c 24.992,24.992, 24.992,66.00,0.00,91.008
		c-23.936,23.936-61.744,24.256-86.88,2.368L 338.192,396.624l 90.496-90.496L 154.496,32.00z" />
<glyph unicode="&#xe025;" d="M 474.496,442.496c-49.936,50.00-131.056,50.00-180.992,0.00L 0.496,149.504L0.00-32.00l 180.992,0.00 l 293.504,293.504
				C 524.496,311.504, 524.496,392.496, 474.496,442.496z M 153.808,32.00L 63.312,32.00 l0.00,91.008 c 24.992,24.992, 65.504,24.992, 90.496,0.00S 178.816,56.992, 153.808,32.00z
				 M 428.064,306.752l-90.496,90.496c 24.992,24.992, 65.504,24.992, 90.496,0.00S 453.056,331.744, 428.064,306.752z" />
<glyph unicode="&#xe026;" d="M 493.233,461.249c-24.991,24.991-65.502,24.991-90.493,0.00l-241.992-242.072
			c 21.631-5.632, 41.631-16.495, 57.87-32.751c 16.495-16.495, 27.007-36.623, 32.623-57.742l 241.992,242.072C 518.24,395.747, 518.24,436.257, 493.233,461.249z
			M 173.371,50.685c 24.991,24.991, 24.991,65.502,0.00,90.493s-65.502,24.991-90.493,0.00L0.00-32.00L 173.371,50.685z" horiz-adv-x="511.9840087890625" />
<glyph unicode="&#xe027;" d="M 493.216,461.248c-24.992,24.992-65.504,24.992-90.496,0.00L 220.32,278.88c 42.256-15.056, 75.504-48.32, 90.496-90.56
				l 182.40,182.432C 518.224,395.744, 518.224,436.256, 493.216,461.248zM 255.936,138.688c0.00,47.12-38.256,85.312-85.376,85.312s-85.312-38.192-85.312-85.312l 0.064-0.064
			C 85.248,75.504, 50.944,20.432,0.00-9.056l 0.256-0.32C 25.312-23.744, 54.32-32.00, 85.312-32.00C 179.568-32.00, 256.00,44.432, 256.00,138.688L 255.936,138.688 z" horiz-adv-x="511.9679870605469" />
<glyph unicode="&#xe028;" d="M 192.00,96.00c0.00,35.376-28.688,64.00-64.00,64.00c-35.376,0.00-64.00-28.624-64.00-64.00l0.00-0.128 c0.00-47.312-25.744-88.56-64.00-110.688l 0.256-0.192
			C 19.008-25.808, 40.752-32.00, 64.00-32.00C 134.688-32.00, 192.00,25.312, 192.00,96.00L 192.00,96.00zM 493.216,461.248c-24.992,24.992-65.504,24.992-90.496,0.00L 160.752,219.248c 44.128-11.808, 78.752-46.368, 90.496-90.56
			L 493.216,370.752C 518.224,395.744, 518.224,436.256, 493.216,461.248z" horiz-adv-x="511.9679870605469" />
<glyph unicode="&#xe029;" d="M 474.48,261.056c 49.936,49.904, 49.936,130.88,0.00,180.752c-24.944,24.944-57.68,37.44-90.368,37.44
		c-32.656,0.00-65.408-12.496-90.336-37.44l-9.44-9.44L 236.752,480.00l-45.12-45.152l 47.632-47.60L0.00,147.84l0.00-115.968 L 62.88-32.00l 118.624,0.00 l 238.416,238.496
		l 46.00-46.032l 45.184,45.12l-46.064,46.032L 474.48,261.056z M 165.12,42.128c 0.752,24.256-7.632,48.56-26.064,67.008
		c-16.944,16.992-39.056,25.312-61.312,26.064L 284.448,341.968l 90.288-90.224L 165.12,42.128z" horiz-adv-x="511.9360046386719" />
<glyph unicode="&#xe02a;" d="M0.00,96.00L 256.016,32.00L 512.00,96.00L 512.00,32.00L 256.016-32.00L0.00,32.00 		zM0.00,224.00L 256.016,160.00L 512.00,224.00L 512.00,160.00L 256.016,96.00L0.00,160.00 		zM0.00,352.00L 256.016,288.00L 512.00,352.00L 512.00,288.00L 256.016,224.00L0.00,288.00 		zM0.00,480.00L 256.016,416.00L 512.00,480.00L 512.00,416.00L 256.016,352.00L0.00,416.00 		z" horiz-adv-x="511.9679870605469" />
<glyph unicode="&#xe02b;" d="M0.00,128.00L 256.016,64.00L 512.00,128.00L 512.00,64.00L 256.016,0.00L0.00,64.00 		zM0.00,256.00L 256.016,192.00L 512.00,256.00L 512.00,192.00L 256.016,128.00L0.00,192.00 		zM0.00,384.00L 256.016,448.00L 512.00,384.00L 512.00,320.00L 256.016,256.00L0.00,320.00 		z" horiz-adv-x="511.9679870605469" />
<glyph unicode="&#xe02c;" d="M 128.00,96.00L 128.00,224.00L 192.00,288.00L 256.00,224.00L 384.00,352.00L 512.00,224.00L 512.00,96.00 		zM 64.00,32.00L 64.00,480.00L0.00,416.00L0.00,32.00L0.00-32.00L 64.00-32.00L 448.00-32.00L 512.00,32.00 		z" />
<glyph unicode="&#xe02d;" d="M 256.00,160.00A64.00,64.00 1620.00 1,0 384.00,160A64.00,64.00 1620.00 1,0 256.00,160zM 448.00,352.00l-52.624,106.288C 391.056,470.912, 379.12,480.00, 364.992,480.00L 277.12,480.00 c-14.288,0.00-26.336-9.312-30.464-22.16
			L 192.064,352.00L 64.00,352.00 c-35.344,0.00-64.00-28.656-64.00-64.00l0.00-320.00 l 512.00,0.00 L 512.00,288.00 C 512.00,323.344, 483.376,352.00, 448.00,352.00z M 96.00,224.00c-17.68,0.00-32.00,14.32-32.00,32.00s 14.32,32.00, 32.00,32.00s 32.00-14.32, 32.00-32.00
			S 113.68,224.00, 96.00,224.00z M 320.00,32.00c-70.688,0.00-128.00,57.312-128.00,128.00s 57.312,128.00, 128.00,128.00s 128.00-57.312, 128.00-128.00S 390.688,32.00, 320.00,32.00z" />
<glyph unicode="&#xe02e;" d="M 338.752,256.32l 91.056,154.624C 384.128,453.472, 323.376,480.00, 256.00,480.00c-15.968,0.00-31.44-1.904-46.592-4.688
			L 338.752,256.32zM 319.248,160.00l 183.68,0.00 C 508.256,180.56, 512.00,201.744, 512.00,224.00c0.00,61.968-22.88,118.032-59.568,162.32L 319.248,160.00zM 264.00,320.00l-86.528,146.432C 105.472,443.088, 47.248,389.664, 19.008,320.00L 264.00,320.00 zM 250.128,128.00l 86.256-145.872c 71.184,23.744, 128.624,76.816, 156.624,145.872L 250.128,128.00 zM 193.68,288.00L 9.056,288.00 C 3.712,267.44,0.00,246.256,0.00,224.00c0.00-62.256, 23.12-118.56, 60.096-163.008L 193.68,288.00zM 174.688,192.624l-91.904-156.128C 128.432-5.632, 188.944-32.00, 256.00-32.00c 16.656,0.00, 32.88,1.872, 48.624,4.88
			L 174.688,192.624z" />
<glyph unicode="&#xe02f;" d="M 484.944,336.432l-159.568-159.568l 181.872,0.00 C 510.128,192.256, 512.00,207.872, 512.00,224.00
			C 512.00,264.528, 501.744,302.368, 484.944,336.432zM 336.88,236.16l 131.248,131.184c-31.248,46.064-77.504,80.336-131.248,98.336L 336.88,236.16 zM 267.968,143.12l 131.28-131.312c 46.128,31.184, 80.432,77.504, 98.432,131.312L 267.968,143.12 zM 303.088,292.096L 303.088,475.248 C 287.776,478.096, 272.128,480.00, 256.00,480.00c-40.88,0.00-79.008-10.464-113.28-27.536L 303.088,292.096zM 208.912,154.368l0.00-181.632 C 224.224-30.128, 239.872-32.00, 256.00-32.00c 40.496,0.00, 78.256,10.256, 112.32,27.008
			L 208.912,154.368zM 175.088,211.632L 44.00,80.56c 31.184-46.00, 77.408-80.256, 131.088-98.256L 175.088,211.632 zM 4.752,271.088C 1.904,255.776,0.00,240.128,0.00,224.00c0.00-40.624, 10.32-78.496, 27.12-112.56l 159.664,159.664L 4.752,271.104 zM 111.936,435.504C 66.256,404.32, 32.224,358.336, 14.32,304.912l 228.224,0.00 L 111.936,435.504z" />
<glyph unicode="&#xe030;" d="M 219.856,169.632l-160.128,160.00c-79.632-92.064-79.632-227.952,0.00-320.00L 219.856,169.632zM 320.016,413.472l0.00-234.336 L 154.384,13.44C 191.632-14.368, 236.88-32.00, 286.88-32.00C 411.248-32.00, 512.00,68.624, 512.00,192.944
			C 512.016,305.872, 428.288,397.376, 320.016,413.472zM 256.00,223.744L 256.00,480.00 C 186.256,475.68, 123.248,448.992, 72.368,407.408L 256.00,223.744z" horiz-adv-x="511.9679870605469" />
<glyph unicode="&#xe031;" d="M 232.528,169.248L 63.28,338.496c-84.368-97.376-84.368-241.12,0.00-338.496L 232.528,169.248zM 256.00,192.00L 256.00,480.00 C 177.504,475.12, 106.752,445.12, 49.648,398.368L 256.00,192.00zM 288.032,415.744l0.00-236.992 L 121.904,12.624C 159.152-14.752, 204.032-32.00, 253.664-32.00C 378.752-32.00, 480.00,69.248, 480.00,194.128
			C 480.00,307.376, 396.368,399.12, 288.032,415.744z" horiz-adv-x="480" />
<glyph unicode="&#xe032;" d="M 384.00,480.00L 512.00,480.00L 512.00-32.00L 384.00-32.00zM 192.00,352.00L 320.00,352.00L 320.00-32.00L 192.00-32.00zM0.00,224.00L 128.00,224.00L 128.00-32.00L0.00-32.00z" />
<glyph unicode="&#xe033;" d="M 384.00,480.00L 448.00,480.00L 448.00-32.00L 384.00-32.00zM 256.00,352.00L 320.00,352.00L 320.00-32.00L 256.00-32.00zM 128.00,224.00L 192.00,224.00L 192.00-32.00L 128.00-32.00zM0.00,96.00L 64.00,96.00L 64.00-32.00L0.00-32.00z" horiz-adv-x="448" />
<glyph unicode="&#xe034;" d="M 256.00,416.00C 114.624,416.00,0.00,226.496,0.00,226.496S 114.624,32.00, 256.00,32.00s 256.00,194.496, 256.00,194.496S 397.376,416.00, 256.00,416.00z M 256.00,96.00
			c-70.688,0.00-128.00,57.312-128.00,128.00s 57.312,128.00, 128.00,128.00s 128.00-57.312, 128.00-128.00S 326.688,96.00, 256.00,96.00zM 192.00,224.00A64.00,64.00 1620.00 1,0 320.00,224A64.00,64.00 1620.00 1,0 192.00,224z" />
<glyph unicode="&#xe035;" d="M 192.00,224.00C 86.00,224.00,0.00,138.00,0.00,32.00c0.00-35.376, 28.624-64.00, 64.00-64.00l 256.00,0.00 c 35.376,0.00, 64.00,28.624, 64.00,64.00
			C 384.00,138.00, 298.00,224.00, 192.00,224.00zM 96.00,384.00A96.00,96.00 1620.00 1,0 288.00,384A96.00,96.00 1620.00 1,0 96.00,384z" horiz-adv-x="384" />
<glyph unicode="&#xe036;" d="M 256.00,480.00L0.00,224.00l 64.00,0.00 l0.00-256.00 l 384.00,0.00 L 448.00,224.00 l 64.00,0.00 L 256.00,480.00z M 384.00,32.00l-96.00,0.00 l0.00,96.00 l-64.00,0.00 l0.00-96.00 L 128.00,32.00 L 128.00,261.504 L 256.00,352.00l 128.00-90.496L 384.00,32.00 z" />
<glyph unicode="&#xe037;" d="M 256.00,416.00c 105.872,0.00, 192.00-86.128, 192.00-192.00s-86.128-192.00-192.00-192.00S 64.00,118.128, 64.00,224.00S 150.128,416.00, 256.00,416.00 M 256.00,480.00
			C 114.624,480.00,0.00,365.376,0.00,224.00s 114.624-256.00, 256.00-256.00s 256.00,114.624, 256.00,256.00S 397.376,480.00, 256.00,480.00L 256.00,480.00zM 342.752,182.752L 288.00,237.568L 288.00,352.00 l-64.368,0.00 l0.00-127.872 c0.00-9.632, 4.432-17.936, 11.12-23.872l 62.752-62.752
			L 342.752,182.752z" />
<glyph unicode="&#xe038;" d="M 224.064,480.00c-88.16,0.00-159.968-71.744-159.968-160.00l0.00-32.00 L0.00,288.00 l0.00-224.00 c0.00-52.88, 43.12-96.00, 95.968-96.00L 288.00-32.00 c 53.008,0.00, 96.00,43.12, 96.00,96.00L 384.00,320.00 
			C 384.00,408.256, 312.256,480.00, 224.064,480.00z M 128.096,320.00c0.00,52.992, 43.088,96.00, 95.968,96.00C 277.008,416.00, 320.00,372.992, 320.00,320.00l0.00-32.00 L 128.096,288.00 L 128.096,320.00 z M 288.00,32.00L 95.968,32.00 
			c-17.632,0.00-32.00,14.368-32.00,32.00L 63.968,224.00 L 320.00,224.00 l0.00-160.00 C 320.00,46.368, 305.744,32.00, 288.00,32.00zM 224.00,128.00c0.00-17.632-14.368-32.00-32.00-32.00c-17.744,0.00-32.00,14.368-32.00,32.00c0.00,17.744, 14.256,32.00, 32.00,32.00C 209.632,160.00, 224.00,145.744, 224.00,128.00z" horiz-adv-x="384" />
<glyph unicode="&#xe039;" d="M 224.00,480.00C 135.872,480.00, 64.064,408.256, 64.064,320.00l0.00-32.00 L0.00,288.00 l0.00-224.00 c0.00-52.944, 43.056-96.00, 96.00-96.00l 192.00,0.00 c 52.944,0.00, 96.00,43.056, 96.00,96.00L 384.00,320.00 
		C 384.00,408.256, 312.192,480.00, 224.00,480.00z M 191.936,96.00C 174.32,96.00, 160.00,110.32, 160.00,128.00s 14.32,32.00, 31.936,32.00c 17.68,0.00, 32.00-14.32, 32.00-32.00S 209.632,96.00, 191.936,96.00z M 320.00,288.00
		L 128.064,288.00 l0.00,32.00 c0.00,52.944, 43.056,96.00, 95.936,96.00c 52.944,0.00, 96.00-43.056, 96.00-96.00L 320.00,288.00 z" horiz-adv-x="384" />
<glyph unicode="&#xe03a;" d="M 224.064,480.00C 135.84,480.00, 64.096,408.192, 64.096,320.00l 64.00,0.00 c0.00,52.88, 43.024,96.00, 95.968,96.00S 320.00,372.88, 320.00,320.00l0.00-32.00 L0.00,288.00 l0.00-224.00 
			c0.00-52.992, 43.056-96.00, 95.968-96.00L 288.00-32.00 c 52.944,0.00, 96.00,43.008, 96.00,96.00L 384.00,320.00 C 384.00,408.192, 312.256,480.00, 224.064,480.00z M 288.00,32.00L 95.968,32.00 c-17.632,0.00-32.00,14.32-32.00,32.00L 63.968,224.00 L 320.00,224.00 l0.00-160.00 
			C 320.00,46.32, 305.632,32.00, 288.00,32.00zM 224.00,128.00c0.00-17.744-14.32-32.00-32.00-32.00s-32.00,14.256-32.00,32.00c0.00,17.632, 14.32,32.00, 32.00,32.00S 224.00,145.632, 224.00,128.00z" horiz-adv-x="384" />
<glyph unicode="&#xe03b;" d="M 224.064,480.00C 135.808,480.00, 64.128,408.256, 64.128,320.00l 63.936,0.00 c0.00,52.944, 43.008,96.00, 96.00,96.00C 276.944,416.00, 320.00,372.944, 320.00,320.00l0.00-32.00 L0.00,288.00 l0.00-224.00 
		c0.00-52.944, 43.12-96.00, 96.00-96.00l 192.00,0.00 c 52.88,0.00, 96.00,43.056, 96.00,96.00L 384.00,320.00 C 384.00,408.256, 312.192,480.00, 224.064,480.00z M 192.00,96.00c-17.632,0.00-32.00,14.32-32.00,32.00s 14.368,32.00, 32.00,32.00
		c 17.744,0.00, 32.00-14.32, 32.00-32.00S 209.744,96.00, 192.00,96.00z" horiz-adv-x="384" />
<glyph unicode="&#xe03c;" d="M0.00,480.00l0.00-212.368 L 299.632-32.00c0.00,0.00,0.00,172.688,0.00,212.32c 39.632,0.00, 212.368,0.00, 212.368,0.00L 212.368,480.00L0.00,480.00 z M 188.752,423.008
				c 12.368-12.32, 126.064-126.128, 185.632-185.68c-49.632,0.00-131.744,0.00-131.744,0.00s0.00-82.128,0.00-131.632C 183.056,165.184, 69.376,278.944, 56.992,291.184
				c0.00,16.88,0.00,95.376,0.00,131.808C 93.44,423.008, 171.872,423.008, 188.752,423.008zM 187.184,342.192c0.00-27.248-22.128-49.376-49.312-49.376c-27.248,0.00-49.376,22.128-49.376,49.376
			c0.00,27.184, 22.128,49.248, 49.376,49.248C 165.056,391.44, 187.184,369.376, 187.184,342.192z" />
<glyph unicode="&#xe03d;" d="M 212.432,480.00L0.00,480.00 l0.00-212.432 L 299.504-32.00L 299.504,180.432 L 512.00,180.432 L 212.432,480.00z M 116.992,302.064c-33.632,0.00-60.88,27.248-60.88,60.88
		S 83.36,423.824, 116.992,423.824s 60.88-27.248, 60.88-60.88S 150.624,302.064, 116.992,302.064z" />
<glyph unicode="&#xe03e;" d="M 256.016,288.00c 35.248,0.00, 64.00-28.72, 64.00-64.00s-28.752-64.00-64.00-64.00s-64.00,28.72-64.00,64.00S 220.768,288.00, 256.016,288.00 M 256.016,352.00
			c-70.688,0.00-128.00-57.312-128.00-128.00s 57.312-128.00, 128.00-128.00C 326.704,96.00, 384.00,153.312, 384.00,224.00S 326.704,352.00, 256.016,352.00L 256.016,352.00zM 224.00,448.00A32.00,32.00 1620.00 1,0 288.00,448A32.00,32.00 1620.00 1,0 224.00,448zM 64.00,384.00A32.00,32.00 1620.00 1,0 128.00,384A32.00,32.00 1620.00 1,0 64.00,384zM 32.00,256.00c 17.68,0.00, 32.00-14.32, 32.00-32.00c0.00-17.712-14.32-32.00-32.00-32.00s-32.00,14.288-32.00,32.00C0.00,241.68, 14.32,256.00, 32.00,256.00zM 64.00,64.00A32.00,32.00 1620.00 1,0 128.00,64A32.00,32.00 1620.00 1,0 64.00,64zM 224.00,0.00c0.00,17.744, 14.32,32.00, 32.00,32.00c 17.728,0.00, 32.00-14.256, 32.00-32.00c0.00-17.632-14.272-32.00-32.00-32.00C 238.32-32.00, 224.00-17.632, 224.00,0.00zM 384.00,64.00A32.00,32.00 1620.00 1,0 448.00,64A32.00,32.00 1620.00 1,0 384.00,64zM 480.00,192.00c-17.664,0.00-32.00,14.336-32.00,32.00c0.00,17.712, 14.336,32.00, 32.00,32.00s 32.00-14.288, 32.00-32.00C 512.00,206.336, 497.664,192.00, 480.00,192.00zM 384.00,384.00A32.00,32.00 1620.00 1,0 448.00,384A32.00,32.00 1620.00 1,0 384.00,384z" horiz-adv-x="511.9679870605469" />
<glyph unicode="&#xe03f;" d="M 256.016,352.00c-70.688,0.00-128.00-57.312-128.00-128.00s 57.312-128.00, 128.00-128.00C 326.704,96.00, 384.00,153.312, 384.00,224.00S 326.704,352.00, 256.016,352.00L 256.016,352.00zM 224.00,448.00A32.00,32.00 1620.00 1,0 288.00,448A32.00,32.00 1620.00 1,0 224.00,448zM 64.00,384.00A32.00,32.00 1620.00 1,0 128.00,384A32.00,32.00 1620.00 1,0 64.00,384zM 32.00,256.00c 17.68,0.00, 32.00-14.32, 32.00-32.00c0.00-17.712-14.32-32.00-32.00-32.00s-32.00,14.288-32.00,32.00C0.00,241.68, 14.32,256.00, 32.00,256.00zM 64.00,64.00A32.00,32.00 1620.00 1,0 128.00,64A32.00,32.00 1620.00 1,0 64.00,64zM 224.00,0.00c0.00,17.744, 14.32,32.00, 32.00,32.00c 17.728,0.00, 32.00-14.256, 32.00-32.00c0.00-17.632-14.272-32.00-32.00-32.00C 238.32-32.00, 224.00-17.632, 224.00,0.00zM 384.00,64.00A32.00,32.00 1620.00 1,0 448.00,64A32.00,32.00 1620.00 1,0 384.00,64zM 480.00,192.00c-17.664,0.00-32.00,14.336-32.00,32.00c0.00,17.712, 14.336,32.00, 32.00,32.00s 32.00-14.288, 32.00-32.00C 512.00,206.336, 497.664,192.00, 480.00,192.00zM 384.00,384.00A32.00,32.00 1620.00 1,0 448.00,384A32.00,32.00 1620.00 1,0 384.00,384z" horiz-adv-x="511.9679870605469" />
<glyph unicode="&#xe040;" d="M 94.32,333.632c 13.568-143.344, 128.00-257.744, 271.312-271.248c-30.56-19.376-66.432-30.368-104.00-30.368
		C 152.624,32.00, 64.00,120.624, 64.00,229.664C 64.00,267.216, 75.008,303.056, 94.32,333.632 M 189.504,480.00C 80.32,448.496,0.00,348.976,0.00,229.664C0.00,85.12, 117.12-32.00, 261.632-32.00
		c 119.312,0.00, 218.88,80.368, 250.368,189.504c-34.88-20.128-74.752-32.496-117.872-32.496c-131.008,0.00-237.12,106.224-237.12,237.152
		C 156.992,405.28, 169.376,445.152, 189.504,480.00L 189.504,480.00z" />
<glyph unicode="&#xe041;" d="M 394.128,125.056c-131.008,0.00-237.12,106.192-237.12,237.12c0.00,43.12, 12.368,83.008, 32.496,117.808
			C 80.32,448.496,0.00,348.992,0.00,229.68C0.00,85.184, 117.12-32.00, 261.632-32.00c 119.312,0.00, 218.88,80.368, 250.368,189.504
			C 477.12,137.44, 437.248,125.056, 394.128,125.056z" />
<glyph unicode="&#xe042;" d="M 384.00,320.00c-6.064,0.00-11.808-0.976-17.632-1.776C 344.064,357.664, 302.816,384.00, 256.00,384.00c-47.808,0.00-89.056-26.656-111.056-65.60
		C 139.312,319.152, 133.68,320.00, 128.00,320.00c-70.56,0.00-128.00-57.408-128.00-128.00c0.00-70.624, 57.44-128.00, 128.00-128.00l 256.00,0.00 c 70.56,0.00, 128.00,57.376, 128.00,128.00C 512.00,262.592, 454.56,320.00, 384.00,320.00z M 384.00,128.00L 128.00,128.00 
		c-35.312,0.00-64.00,28.752-64.00,64.00c0.00,35.088, 31.056,62.16, 64.064,63.12c 0.128-15.088, 2.752-29.904, 8.00-43.904l 59.936,22.432
		C 193.312,240.752, 192.00,248.288, 192.00,256.00c0.00,35.28, 28.688,64.00, 64.00,64.00c 20.688,0.00, 39.44-10.256, 51.184-26.224C 276.32,270.40, 256.00,233.68, 256.00,192.00l 64.00,0.00 
		c0.00,35.28, 28.688,64.00, 64.00,64.00s 64.00-28.72, 64.00-64.00C 448.00,156.752, 419.312,128.00, 384.00,128.00z" />
<glyph unicode="&#xe043;" d="M 383.968,384.00c-6.00,0.00-11.728-0.976-17.648-1.776C 344.096,421.664, 302.816,448.00, 256.00,448.00c-47.792,0.00-89.04-26.656-111.04-65.60
			C 139.312,383.152, 133.68,384.00, 128.00,384.00c-70.56,0.00-128.00-57.408-128.00-128.00s 57.44-128.00, 128.00-128.00l 255.968,0.00 c 70.624,0.00, 128.00,57.408, 128.00,128.00S 454.592,384.00, 383.968,384.00z M 383.968,192.00L 128.00,192.00 
			c-35.312,0.00-64.00,28.72-64.00,64.00c0.00,35.088, 31.056,62.16, 64.064,63.12c 0.144-15.088, 2.752-29.904, 8.00-43.904l 59.936,22.432
			C 193.312,304.752, 192.00,312.288, 192.00,320.00c0.00,35.28, 28.688,64.00, 64.00,64.00c 20.688,0.00, 39.44-10.256, 51.184-26.224C 276.336,334.40, 256.00,297.68, 256.00,256.00l 64.00,0.00 
			c0.00,35.28, 28.72,64.00, 63.968,64.00c 35.376,0.00, 64.00-28.72, 64.00-64.00S 419.344,192.00, 383.968,192.00zM 52.496,8.992c-12.00-12.00-31.504-12.00-43.504,0.00s-12.00,31.504,0.00,43.504S 96.00,96.00, 96.00,96.00S 64.496,20.992, 52.496,8.992zM 180.56,8.992c-12.00-12.00-31.44-12.00-43.504,0.00c-12.00,12.00-12.00,31.504,0.00,43.504
			C 149.12,64.496, 224.064,96.00, 224.064,96.00S 192.624,20.992, 180.56,8.992zM 308.48,8.992c-12.00-12.00-31.504-12.00-43.504,0.00s-12.00,31.504,0.00,43.504S 351.968,96.00, 351.968,96.00
			S 320.48,20.992, 308.48,8.992z" horiz-adv-x="511.9679870605469" />
<glyph unicode="&#xe044;" d="M 256.00,480.00C 114.88,480.00,0.00,365.152,0.00,224.00l 64.00,0.00 c0.00,13.216, 10.816,24.00, 24.00,24.00C 101.248,248.00, 112.00,237.216, 112.00,224.00l 64.00,0.00 
		c0.00,13.216, 10.816,24.00, 24.00,24.00c 13.248,0.00, 24.00-10.784, 24.00-24.00l0.00-160.00 c0.00-17.632-14.32-32.00-32.00-32.00c-17.632,0.00-32.00,14.368-32.00,32.00L 96.00,64.00 c0.00-52.944, 43.12-96.00, 96.00-96.00
		c 52.992,0.00, 96.00,43.056, 96.00,96.00L 288.00,224.00 c0.00,13.216, 10.816,24.00, 24.00,24.00c 13.248,0.00, 23.968-10.784, 23.968-24.00l 64.00,0.00 c0.00,13.216, 10.88,24.00, 24.00,24.00
		c 13.248,0.00, 24.00-10.784, 24.00-24.00l 64.00,0.00 C 511.968,365.152, 397.216,480.00, 256.00,480.00z" horiz-adv-x="511.9679870605469" />
<glyph unicode="&#xe045;" d="M 354.192,166.00L 512.00,288.00L 320.00,288.00L 256.00,480.00L 192.00,288.00L0.00,288.00L 158.00,166.496L 96.00-32.00L 256.256,90.88L 416.128-32.00 		
			z" />
<glyph unicode="&#xe046;" d="M 160.00,416.00c 25.632,0.00, 49.744-10.00, 67.872-28.16C 246.00,369.744, 256.00,345.632, 256.00,320.00s-10.00-49.744-27.68-67.408
			c-2.688-2.656-35.808-35.60-68.32-87.056c-32.368,51.376-65.376,84.192-67.872,86.624C 74.00,270.256, 64.00,294.368, 64.00,320.00s 10.00,49.744, 28.128,67.872
			S 134.368,416.00, 160.00,416.00 M 160.00,480.00C 119.056,480.00, 78.128,464.368, 46.88,433.12c-62.496-62.464-62.496-163.776,0.00-226.256C 46.88,206.88, 160.00,96.00, 160.00-32.00
			c0.00,128.00, 113.12,238.88, 113.12,238.88c 62.496,62.464, 62.496,163.776,0.00,226.256C 241.872,464.368, 200.944,480.00, 160.00,480.00L 160.00,480.00zM 128.00,320.00A32.00,32.00 1620.00 1,0 192.00,320A32.00,32.00 1620.00 1,0 128.00,320z" horiz-adv-x="320" />
<glyph unicode="&#xe047;" d="M 273.12,433.12c-62.496,62.496-163.744,62.496-226.256,0.00c-62.496-62.464-62.496-163.808,0.00-226.24
				C 46.88,206.88, 160.00,96.00, 160.00-32.00c0.00,128.00, 113.12,238.88, 113.12,238.88C 335.632,269.312, 335.632,370.656, 273.12,433.12z M 160.00,256.00c-35.376,0.00-64.00,28.624-64.00,64.00
				s 28.624,64.00, 64.00,64.00s 64.00-28.624, 64.00-64.00S 195.376,256.00, 160.00,256.00z" horiz-adv-x="320" />
<glyph unicode="&#xe048;" d="M 128.00,480.00C 57.312,480.00,0.00,422.688,0.00,352.00s 128.00-384.00, 128.00-384.00s 128.00,313.312, 128.00,384.00S 198.688,480.00, 128.00,480.00z M 128.00,288.00c-35.344,0.00-64.00,28.656-64.00,64.00
		s 28.656,64.00, 64.00,64.00s 64.00-28.656, 64.00-64.00S 163.344,288.00, 128.00,288.00z" horiz-adv-x="256" />
<glyph unicode="&#xe049;" d="M 288.368,256.40l 92.624,0.00 c-11.744,45.376-47.248,80.912-92.624,92.624L 288.368,256.40 zM 288.368,191.60l0.00-92.592 c 45.376,11.68, 80.88,47.248, 92.624,92.592L 288.368,191.60 zM 223.568,256.40L 223.568,349.024 c-45.376-11.712-80.944-47.248-92.624-92.624L 223.568,256.40 zM 223.568,191.60L 130.944,191.60 c 11.68-45.344, 47.248-80.912, 92.624-92.592L 223.568,191.60 zM 288.368,415.152c 81.184-13.744, 144.992-77.568, 158.752-158.752L 512.00,256.40 C 497.184,373.376, 405.376,465.216, 288.368,480.00L 288.368,415.152 z
				M 64.816,256.40C 78.56,337.60, 142.368,401.408, 223.568,415.152L 223.568,480.00 C 106.624,465.216, 14.752,373.376,0.00,256.40L 64.816,256.40 zM 223.568,32.88c-81.184,13.744-144.992,77.504-158.752,158.72L0.00,191.60 C 14.752,74.624, 106.624-17.248, 223.568-32.00
				L 223.568,32.88 zM 447.12,191.60c-13.744-81.216-77.568-144.976-158.752-158.72L 288.368-32.00 C 405.376-17.248, 497.184,74.624, 512.00,191.60
				L 447.12,191.60 z" />
<glyph unicode="&#xe04a;" d="M0.00,32.00L 384.00,32.00L 384.00-32.00L0.00-32.00zM 256.00,192.00L 256.00,480.00L 128.00,480.00L 128.00,192.00L 64.00,192.00L 192.00,32.00L 320.00,192.00 		z" horiz-adv-x="384" />
<glyph unicode="&#xe04b;" d="M0.00,480.00L 384.00,480.00L 384.00,416.00L0.00,416.00zM 128.00,256.00L 128.00-32.00L 256.00-32.00L 256.00,256.00L 320.00,256.00L 192.00,416.00L 64.00,256.00 		z" horiz-adv-x="384" />
<glyph unicode="&#xe04c;" d="M 384.00,416.00c-6.00,0.00-11.808-0.944-17.632-1.808C 344.064,453.68, 302.816,480.00, 256.00,480.00c-47.808,0.00-89.088-26.688-111.056-65.568
			C 139.312,415.184, 133.712,416.00, 128.00,416.00c-70.592,0.00-128.00-57.44-128.00-128.00s 57.408-128.00, 128.00-128.00l 96.00,0.00 l0.00-96.00 l-64.00,0.00 l 96.00-96.00l 96.00,96.00l-64.00,0.00 l0.00,96.00 l 96.00,0.00 c 70.624,0.00, 128.00,57.44, 128.00,128.00S 454.624,416.00, 384.00,416.00z M 384.00,224.00L 128.00,224.00 
			c-35.28,0.00-64.00,28.688-64.00,64.00c0.00,35.056, 31.088,62.192, 64.064,63.12c 0.128-15.056, 2.752-29.936, 8.00-43.936l 59.936,22.496C 193.344,336.752, 192.00,344.32, 192.00,352.00
			c0.00,35.312, 28.72,64.00, 64.00,64.00c 20.72,0.00, 39.408-10.256, 51.248-26.192C 276.32,366.432, 256.00,329.68, 256.00,288.00l 64.00,0.00 c0.00,35.312, 28.752,64.00, 64.00,64.00s 64.00-28.688, 64.00-64.00
			S 419.248,224.00, 384.00,224.00z" />
<glyph unicode="&#xe04d;" d="M 384.00,416.00c-6.00,0.00-11.808-0.992-17.632-1.744C 344.064,453.632, 302.816,480.00, 256.00,480.00c-47.808,0.00-89.088-26.624-111.056-65.632
			C 139.312,415.12, 133.712,416.00, 128.00,416.00c-70.592,0.00-128.00-57.376-128.00-128.00s 57.408-128.00, 128.00-128.00l 256.00,0.00 c 70.624,0.00, 128.00,57.376, 128.00,128.00S 454.624,416.00, 384.00,416.00z M 384.00,224.00L 128.00,224.00 c-35.28,0.00-64.00,28.752-64.00,64.00
			c0.00,35.12, 31.088,62.128, 64.064,63.12C 128.192,336.00, 130.816,321.248, 136.064,307.248l 59.936,22.368C 193.344,336.752, 192.00,344.256, 192.00,352.00c0.00,35.248, 28.72,64.00, 64.00,64.00
			c 20.72,0.00, 39.408-10.256, 51.248-26.256C 276.32,366.368, 256.00,329.68, 256.00,288.00l 64.00,0.00 c0.00,35.248, 28.752,64.00, 64.00,64.00s 64.00-28.752, 64.00-64.00S 419.248,224.00, 384.00,224.00zM 256.00,160.00L 160.00,64.00L 224.00,64.00L 224.00-32.00L 288.00-32.00L 288.00,64.00L 352.00,64.00 		z" />
<glyph unicode="&#xe04e;" d="M 320.00,480.00l0.00-62.00 c0.00-25.632-10.00-49.744-28.064-67.808L 110.88,170.128C 82.256,141.568, 66.496,104.064, 64.752,64.00L0.00,64.00 
			l 96.00-96.00l 96.00,96.00L 128.688,64.00 c 1.68,23.008, 10.944,44.368, 27.376,60.88l 181.056,180.00C 367.376,335.12, 384.00,375.248, 384.00,418.00L 384.00,480.00 L 320.00,480.00 zM 383.248,64.00c-1.744,40.064-17.568,77.568-46.192,106.256l-35.68,35.44L 256.00,160.56l 35.872-35.68
			c 16.496-16.432, 25.744-37.872, 27.44-60.88L 256.00,64.00 l 96.00-96.00l 96.00,96.00L 383.248,64.00 z" horiz-adv-x="448" />
<glyph unicode="&#xe04f;" d="M 276.688,235.328l-45.264,45.264l-64.00-64.00c-31.248-31.248-31.248-81.904,0.00-113.136c 31.248-31.248, 81.888-31.248, 113.136,0.00l 161.952,158.064
	c 49.968,49.984, 49.968,131.008,0.00,181.008c-50.00,49.984-131.04,49.984-181.008,0.00L 83.568,268.448c-68.736-68.72-68.736-180.16,0.00-248.912
	c 68.736-68.736, 180.176-68.736, 248.896,0.00l 96.00,96.00L 383.20,160.80l-0.16-0.16l-95.824-95.84c-43.728-43.712-114.656-43.712-158.40,0.00
	c-43.728,43.712-43.728,114.656,0.00,158.384L 306.752,397.28c 24.992,24.992, 65.52,24.992, 90.496,0.00c 25.008-25.008, 25.008-65.552,0.00-90.512l-161.936-158.064
	c-6.256-6.256-16.368-6.256-22.624,0.00s-6.256,16.368,0.00,22.624L 276.688,235.328z" />
<glyph unicode="&#xe050;" d="M 129.772,224.001A59.223,59.223 8100.00 1,0 248.218,224.001A59.223,59.223 8100.00 1,0 129.772,224.001zM 256.002,480.00C 114.615,480.00,0.00,365.384,0.00,224.00s 114.613-256.00, 256.002-256.00C 397.384-32.00, 512.00,82.615, 512.00,224.00
		C 512.00,365.384, 397.385,480.00, 256.002,480.00z M 189.698,0.359C 112.72,45.146, 60.964,128.521, 60.964,224.00
		c0.00,95.479, 51.756,178.854, 128.731,223.641C 266.70,402.86, 318.49,319.497, 318.49,224.00C 318.49,128.506, 266.70,45.141, 189.698,0.359z" />
<glyph unicode="&#xe051;" d="M 256.00,448.00c-12.032,0.00-23.854-0.896-35.412-2.606c-0.15,0.391-0.312,0.774-0.491,1.148c 6.413,5.001, 9.775,11.915, 8.317,18.776
		C 226.547,474.10, 217.217,480.00, 205.197,480.00c-2.59,0.00-5.229-0.281-7.84-0.836c-15.084-3.207-25.073-14.311-22.741-25.281
		c 1.417-6.669, 7.146-11.669, 15.082-13.692c-0.016-0.486-0.008-0.975, 0.021-1.467C 89.408,409.959, 16.00,317.555, 16.00,208.00
		c0.00-132.549, 107.452-240.00, 240.00-240.00c 132.549,0.00, 240.00,107.451, 240.00,240.00C 496.00,340.548, 388.549,448.00, 256.00,448.00z M 182.441,455.546
		c-1.353,6.363, 6.24,13.595, 16.579,15.792C 201.086,471.777, 203.165,472.00, 205.197,472.00c 8.018,0.00, 14.347-3.432, 15.392-8.345
		c 0.798-3.755-1.535-7.805-5.693-10.952c-3.517,2.483-8.008,3.563-12.55,2.598c-4.522-0.961-8.174-3.754-10.379-7.428
		C 186.875,449.098, 183.213,451.915, 182.441,455.546z M 384.693,79.307c-21.984-21.984-48.605-37.639-77.655-46.077l-21.198,34.384
		l-5.373-39.979C 272.422,26.559, 264.254,26.00, 256.00,26.00c-48.614,0.00-94.318,18.932-128.693,53.307
		c-21.984,21.983-37.639,48.605-46.077,77.654l 34.384,21.199l-39.98,5.373C 74.559,191.578, 74.00,199.746, 74.00,208.00
		c0.00,48.614, 18.931,94.318, 53.307,128.693c 21.984,21.984, 48.606,37.639, 77.655,46.078l 21.198-34.385l 5.374,39.98
		C 239.578,389.441, 247.746,390.00, 256.00,390.00c 48.614,0.00, 94.318-18.931, 128.693-53.307c 21.984-21.984, 37.639-48.606, 46.077-77.655
		l-34.385-21.199l 39.98-5.373C 437.441,224.422, 438.00,216.254, 438.00,208.00C 438.00,159.386, 419.068,113.682, 384.693,79.307zM 380.451,332.451l-98.489-74.852c-7.322,3.829-15.438,6.031-23.708,6.363l-25.54,53.59l-1.534-59.332
		c-6.642-3.268-12.552-7.832-17.438-13.475l-31.544,11.182l 23.046-24.269c-3.167-6.759-4.933-14.015-5.217-21.412l-53.579-25.533
		l 59.369-1.534c 0.19-0.384, 0.387-0.763, 0.585-1.141l-74.852-98.49l 98.489,74.852c 7.322-3.828, 15.437-6.03, 23.708-6.362l 25.54-53.591
		l 1.533,59.332c 6.643,3.269, 12.553,7.832, 17.439,13.476l 31.545-11.184l-23.047,24.27c 3.168,6.76, 4.934,14.015, 5.218,21.412
		l 53.578,25.533l-59.368,1.535c-0.189,0.383-0.387,0.762-0.585,1.14L 380.451,332.451z M 256.051,257.733l0.00-1.724 L 256.051,257.733 
		L 256.051,257.733z M 246.021,254.951c 3.363,0.715, 6.722,1.059, 10.028,1.059c 2.072,0.00, 4.125-0.135, 6.147-0.398l 0.046-0.016
		l-0.005,0.011c 4.366-0.572, 8.588-1.75, 12.566-3.448l-35.773-27.188l-27.19-35.776c-1.188,2.797-2.135,5.742-2.79,8.826
		C 203.537,223.951, 220.09,249.439, 246.021,254.951z M 281.06,167.058L 281.06,167.058L 281.06,167.058
		c-4.528-2.772-9.591-4.842-15.08-6.009c-3.363-0.715-6.722-1.059-10.027-1.059c-2.075,0.00-4.129,0.136-6.154,0.399l-0.039,0.015
		l 0.005-0.01c-4.367,0.571-8.587,1.75-12.566,3.447l 35.772,27.188l 27.19,35.777c 1.188-2.797, 2.135-5.743, 2.79-8.827
		C 307.296,197.538, 297.923,177.379, 281.06,167.058z" />
<glyph unicode="&#xe052;" d="M 255.023,480.00C 115.161,480.00, 14.649,378.552, 14.649,226.388C 14.649,90.979, 112.40-32.00, 255.041-32.00
	c 144.039,0.00, 242.31,122.943, 242.31,258.388C 497.351,379.768, 393.628,480.00, 255.023,480.00z M 344.179,230.729
	c-0.034-84.676-4.549-205.241-89.138-205.241l0.00-0.017 c-83.392,0.00-86.716,120.633-86.716,205.154c0.00,99.19, 9.28,194.284, 86.716,194.284
	C 332.478,424.909, 344.179,328.617, 344.179,230.729z" />
<glyph unicode="&#xe053;" d="M 367.101,165.585l 118.025,0.00 c 0.91,8.185, 1.274,16.549, 1.274,25.098c0.00,40.112-10.767,77.734-29.562,110.133
	c 19.44,51.654, 18.746,95.494-7.278,121.695c-24.748,24.64-91.145,20.64-166.206-12.599c-5.552,0.42-11.159,0.636-16.819,0.636
	c-103.024,0.00-189.463-70.897-213.354-166.425C 85.50,285.50, 119.50,315.50, 164.92,337.347c-4.13-3.87-28.227-27.826-32.28-31.882
	C 12.866,185.726-24.905,29.312, 15.737-11.337c 30.893-30.887, 86.879-25.671, 151.188,5.824
	c 29.903-15.229, 63.75-23.815, 99.609-23.815c 96.567,0.00, 178.402,62.158, 208.045,148.724L 355.645,119.396 
	c-16.367-30.191-48.374-50.74-85.109-50.74c-36.734,0.00-68.742,20.549-85.108,50.74c-7.275,13.637-11.457,29.277-11.457,45.828l0.00,0.361 
	L 367.101,165.585 z M 174.151,223.598c 2.728,48.555, 43.10,87.292, 92.383,87.292c 49.283,0.00, 89.656-38.736, 92.383-87.292L 174.151,223.598 z M 448.483,398.096
	c 16.763-16.94, 16.344-48.107, 2.006-87.011c-24.568,37.454-60.259,66.968-102.396,83.82
	C 393.146,414.224, 429.796,416.783, 448.483,398.096z M 46.741-3.628c-21.391,21.398-14.942,66.309, 12.615,120.416
	c 17.154-48.135, 50.578-88.545, 93.668-114.577C 105.309-19.448, 66.256-23.126, 46.741-3.628z" />
<glyph unicode="&#xe054;" d="M 511.263,312.93l-5.93-38.04c0.00,0.00-8.477,70.428-18.866,96.757c-15.923,40.344-23.007,40.02-23.054,39.961
	c 10.665-27.102, 8.731-41.662, 8.731-41.662s-18.896,51.499-68.856,67.884c-55.343,18.141-85.285,13.182-88.744,12.243
	c-0.525,0.004-1.032,0.005-1.515,0.005c 0.409-0.031, 0.806-0.073, 1.213-0.106c-0.017-0.01-0.045-0.021-0.041-0.026
	c 0.225-0.274, 61.153-10.651, 71.958-25.498c0.00,0.00-25.88,0.00-51.636-7.421c-1.164-0.333, 94.762-11.982, 114.373-107.837
	c0.00,0.00-10.515,21.938-23.52,25.664c 8.553-26.018, 6.357-75.388-1.788-99.925c-1.048-3.156-2.12,13.641-18.164,20.875
	c 5.14-36.823-0.308-95.228-25.854-111.316c-1.991-1.252, 16.015,57.655, 3.621,34.881c-71.354-109.401-155.702-50.486-193.624-24.555
	c 19.433-4.231, 56.327,0.659, 72.657,12.806c 0.021,0.015, 0.039,0.028, 0.059,0.043c 17.734,12.126, 28.236,20.982, 37.667,18.886
	c 9.437-2.107, 15.719,7.363, 8.39,15.765c-7.338,8.419-25.157,19.989-49.262,13.683c-17.00-4.452-38.067-23.261-70.224-4.216
	c-24.682,14.625-27.006,26.773-27.225,35.188c 0.609,2.983, 1.377,5.768, 2.288,8.312c 2.841,7.935, 11.456,10.329, 16.247,12.219
	c 8.128-1.396, 15.131-3.931, 22.484-7.703c 0.095,2.447, 0.126,5.695-0.009,9.38c 0.705,1.401, 0.269,5.626-0.861,10.79
	c-0.651,5.154-1.71,10.487-3.376,15.346c 0.006,0.001, 0.01,0.005, 0.015,0.007c 0.028,0.009, 0.054,0.02, 0.078,0.035
	c 0.039,0.022, 0.073,0.056, 0.104,0.095c 0.006,0.01, 0.015,0.017, 0.022,0.026c 0.041,0.062, 0.077,0.136, 0.099,0.233
	c 0.51,2.309, 6.011,6.762, 12.859,11.55c 6.136,4.29, 13.351,8.848, 19.034,12.376c 5.03,3.124, 8.86,5.441, 9.673,6.049
	c 0.309,0.233, 0.679,0.506, 1.082,0.818c 0.075,0.058, 0.15,0.116, 0.227,0.177c 0.047,0.037, 0.095,0.074, 0.143,0.113
	c 2.705,2.154, 6.742,6.224, 7.589,14.789c 0.002,0.021, 0.005,0.04, 0.006,0.061c 0.025,0.252, 0.046,0.507, 0.065,0.767
	c 0.014,0.181, 0.025,0.363, 0.036,0.548c 0.007,0.142, 0.016,0.283, 0.022,0.428c 0.015,0.337, 0.025,0.682, 0.03,1.032
	c0.00,0.02, 0.001,0.038, 0.002,0.058c 0.011,0.829-0.003,1.693-0.052,2.601c-0.027,0.507-0.063,0.965-0.149,1.381
	c-0.004,0.022-0.009,0.046-0.014,0.068c-0.009,0.041-0.018,0.082-0.029,0.122c-0.018,0.073-0.038,0.146-0.061,0.215
	c-0.003,0.009-0.005,0.016-0.008,0.023c-0.026,0.08-0.056,0.157-0.087,0.232c-0.002,0.003-0.002,0.005-0.003,0.008
	c-0.877,2.054-4.16,2.829-17.721,3.059c-0.013,0.001-0.025,0.001-0.038,0.001l0.00,0.00c-5.533,0.094-12.769,0.097-22.251,0.059
	c-16.625-0.067-25.814,16.252-28.747,22.566c 4.02,22.23, 15.638,38.071, 34.725,48.813c 0.361,0.203, 0.29,0.371-0.137,0.489
	c 3.732,2.257-45.123,0.062-67.593-28.518c-19.944,4.957-37.327,4.623-52.308,1.107c-2.877,0.081-6.462,0.44-10.717,1.326
	c-9.962,9.028-24.224,25.701-24.988,45.604c0.00,0.00-0.046-0.036-0.126-0.102c-0.01,0.191-0.028,0.38-0.036,0.571
	c0.00,0.00-30.358-23.332-25.814-86.941c-0.011-1.018-0.032-1.993-0.06-2.937c-8.216-11.144-12.293-20.51-12.596-22.578
	C 13.398,316.822, 6.011,294.517,0.00,260.654c0.00,0.00, 4.204,13.333, 12.642,28.433c-6.206-19.011-11.082-48.578-8.218-92.928
	c0.00,0.00, 0.757,9.833, 3.437,23.997c 2.093-27.505, 11.259-61.462, 34.429-101.394c 44.474-76.66, 112.835-115.37, 188.396-121.308
	c 13.418-1.106, 27.025-1.132, 40.712-0.093c 1.258,0.089, 2.516,0.182, 3.775,0.287c 15.482,1.087, 31.067,3.426, 46.619,7.183
	C 534.378,56.23, 511.263,312.93, 511.263,312.93z" />
<glyph unicode="&#xe055;" d="M 160.00,224.00A96.00,96.00 3060.00 1,0 352.00,224A96.00,96.00 3060.00 1,0 160.00,224zM 256.00,352.00l 221.743,0.00 C 433.479,428.517, 350.754,480.00, 256.00,480.00C 180.148,480.00, 112.013,447.00, 65.136,394.586l 71.603-124.02
		C 155.364,318.232, 201.737,352.00, 256.00,352.00zM 256.00,96.00c-48.051,0.00-89.91,26.481-111.799,65.643L 34.277,352.035C 12.481,314.372,0.00,270.645,0.00,224.00
		c0.00-123.45, 87.384-226.483, 203.67-250.639l 71.642,124.088C 269.014,96.496, 262.564,96.00, 256.00,96.00zM 493.372,320.00L 340.653,320.00 C 367.231,296.546, 384.00,262.233, 384.00,224.00c0.00-23.934-6.575-46.329-18.009-65.489L 256.00-32.00
		c 141.385,0.00, 256.00,114.615, 256.00,256.00C 512.00,257.952, 505.375,290.352, 493.372,320.00z" />
<glyph unicode="&#xe056;" d="M 76.194,455.739L 59.014,369.776L 408.888,369.776L 397.946,314.249L 47.852,314.249L 30.906,228.30L 380.748,228.30L 361.239,130.268L 220.233,83.557L 98.033,130.268L 106.397,172.789L 20.448,172.789L0.00,69.613L 202.113-7.739L 435.116,69.613L 512.00,455.739 z" />
<glyph unicode="&#xe057;" d="M 30.269,480.00l 41.072-460.815L 255.719-32.00l 184.862,51.262L 481.731,480.00L 30.269,480.00 z M 405.381,48.588L 256.768,7.40l0.00-0.233 
		l-0.388,0.117l-0.391-0.117L 255.989,7.40 l-148.611,41.188L 72.257,442.331l 368.248,0.00 L 405.381,48.588zM 325.377,214.898L 318.842,141.622L 255.874,124.626L 255.737,124.587L 192.806,141.545L 188.781,186.662L 132.036,186.662L 139.951,97.906L 255.737,65.779L 255.797,65.779L 255.874,65.779L 255.989,65.818L 371.66,97.906L 387.18,271.412L 181.197,271.412L 176.046,329.286L 392.117,329.286L 392.313,329.286L 397.369,385.799L 114.26,385.799L 129.509,214.898 	z" />
<glyph unicode="&#xe058;" d="M 30.269,480.00l 41.072-460.815L 255.719-32.00l 184.862,51.262L 481.731,480.00L 30.269,480.00 z M 392.315,329.286l-0.195,0.00 L 176.045,329.286 l 5.151-57.875
	L 387.18,271.411 l-15.521-173.505L 255.99,65.818l-0.115-0.039l-0.077,0.00 l-0.061,0.00 l-115.786,32.127l-7.915,88.756l 56.747,0.00 l 4.024-45.116
	l 62.931-16.958l 0.139,0.039l 62.967,16.996l 6.535,73.275L 129.509,214.898 L 114.262,385.798l 283.107,0.00 L 392.315,329.286z" />
<glyph unicode="&#xe059;" d="M 192.00,174.277L 192.00,231.39 c0.00,7.564, 3.348,14.718, 9.427,20.143c 6.08,5.424, 14.096,8.413, 22.573,8.413l0.00,28.555 
		c-35.20,0.00-64.00-25.70-64.00-57.111l0.00-42.833 c0.00-7.886-7.164-14.279-16.00-14.279l-16.00,0.00 l0.00-28.555 l 16.00,0.00 c 8.837,0.00, 16.00-6.395, 16.00-14.279l0.00-42.838 
		c0.00-31.407, 28.80-57.107, 64.00-57.107l0.00,28.556 c-8.477,0.00-16.494,2.988-22.573,8.413c-6.079,5.426-9.427,12.577-9.427,20.139l0.00,57.117 
		c0.00,7.885-7.164,14.277-16.00,14.277C 184.837,160.00, 192.00,166.395, 192.00,174.277zM 320.00,145.723l0.00-57.117 c0.00-7.562-3.348-14.713-9.427-20.139c-6.079-5.425-14.095-8.413-22.573-8.413l0.00-28.556 
		c 35.201,0.00, 64.00,25.70, 64.00,57.107l0.00,42.838 c0.00,7.886, 7.164,14.279, 16.00,14.279l 16.00,0.00 l0.00,28.555 l-16.00,0.00 c-8.836,0.00-16.00,6.395-16.00,14.279L 352.00,231.39 
		c0.00,31.412-28.799,57.111-64.00,57.111l0.00-28.555 c 8.479,0.00, 16.494-2.989, 22.573-8.415c 6.08-5.424, 9.427-12.578, 9.427-20.142l0.00-57.114 
		c0.00-7.883, 7.164-14.276, 16.00-14.276C 327.164,160.00, 320.00,153.605, 320.00,145.723zM 451.716,380.285l-71.432,71.431C 364.728,467.272, 334.00,480.00, 312.00,480.00L 72.00,480.00 C 50.00,480.00, 32.00,462.00, 32.00,440.00l0.00-432.00 c0.00-22.00, 18.00-40.00, 40.00-40.00l 368.00,0.00 
		c 22.00,0.00, 40.00,18.00, 40.00,40.00L 480.00,312.00 C 480.00,334.00, 467.272,364.729, 451.716,380.285z M 429.089,357.657c 1.565-1.565, 3.125-3.487, 4.64-5.657L 352.00,352.00 L 352.00,433.728 
		c 2.17-1.515, 4.092-3.075, 5.657-4.64L 429.089,357.657z M 448.00,8.00c0.00-4.336-3.664-8.00-8.00-8.00L 72.00,0.00 c-4.336,0.00-8.00,3.664-8.00,8.00L 64.00,440.00 
		c0.00,4.336, 3.664,8.00, 8.00,8.00l 240.00,0.00 c 2.416,0.00, 5.127-0.305, 8.00-0.852L 320.00,320.00 l 127.148,0.00 c 0.547-2.873, 0.852-5.583, 0.852-8.00L 448.00,8.00 z" />
<glyph unicode="&#xe05a;" d="M 224.00,192.00L 192.00,224.00L 96.00,128.00L 192.00,32.00L 224.00,64.00L 160.00,128.00 	zM 288.00,64.00L 320.00,32.00L 416.00,128.00L 320.00,224.00L 288.00,192.00L 352.00,128.00 	zM 451.716,380.285l-71.432,71.431C 364.728,467.272, 334.00,480.00, 312.00,480.00L 72.00,480.00 C 50.00,480.00, 32.00,462.00, 32.00,440.00l0.00-432.00 c0.00-22.00, 18.00-40.00, 40.00-40.00l 368.00,0.00 
		c 22.00,0.00, 40.00,18.00, 40.00,40.00L 480.00,312.00 C 480.00,334.00, 467.272,364.729, 451.716,380.285z M 429.089,357.657c 1.565-1.565, 3.125-3.487, 4.64-5.657L 352.00,352.00 L 352.00,433.728 
		c 2.17-1.515, 4.092-3.075, 5.657-4.64L 429.089,357.657z M 448.00,8.00c0.00-4.336-3.664-8.00-8.00-8.00L 72.00,0.00 c-4.336,0.00-8.00,3.664-8.00,8.00L 64.00,440.00 
		c0.00,4.336, 3.664,8.00, 8.00,8.00l 240.00,0.00 c 2.416,0.00, 5.127-0.305, 8.00-0.852L 320.00,320.00 l 127.148,0.00 c 0.547-2.873, 0.852-5.583, 0.852-8.00L 448.00,8.00 z" />
<glyph unicode="&#xe05b;" d="M 208.00,416.00L 256.00,416.00L 256.00,384.00L 208.00,384.00zM 160.00,384.00L 208.00,384.00L 208.00,352.00L 160.00,352.00zM 208.00,352.00L 256.00,352.00L 256.00,320.00L 208.00,320.00zM 160.00,320.00L 208.00,320.00L 208.00,288.00L 160.00,288.00zM 208.00,288.00L 256.00,288.00L 256.00,256.00L 208.00,256.00zM 160.00,256.00L 208.00,256.00L 208.00,224.00L 160.00,224.00zM 208.00,224.00l0.00-32.00 l-48.00,0.00 l0.00-112.00 c0.00-8.837, 7.163-16.00, 16.00-16.00l 64.00,0.00 c 8.837,0.00, 16.00,7.163, 16.00,16.00L 256.00,224.00 L 208.00,224.00 z M 240.00,96.00l-64.00,0.00 l0.00,32.00 l 64.00,0.00 L 240.00,96.00 zM 451.716,380.285l-71.432,71.431C 364.728,467.272, 334.00,480.00, 312.00,480.00L 72.00,480.00 C 50.00,480.00, 32.00,462.00, 32.00,440.00l0.00-432.00 c0.00-22.00, 18.00-40.00, 40.00-40.00l 368.00,0.00 
		c 22.00,0.00, 40.00,18.00, 40.00,40.00L 480.00,312.00 C 480.00,334.00, 467.272,364.729, 451.716,380.285z M 429.089,357.657c 1.565-1.565, 3.125-3.487, 4.64-5.657L 352.00,352.00 L 352.00,433.728 
		c 2.17-1.515, 4.092-3.075, 5.657-4.64L 429.089,357.657z M 448.00,8.00c0.00-4.336-3.664-8.00-8.00-8.00L 72.00,0.00 c-4.336,0.00-8.00,3.664-8.00,8.00L 64.00,440.00 
		c0.00,4.336, 3.664,8.00, 8.00,8.00l 240.00,0.00 c 2.416,0.00, 5.127-0.305, 8.00-0.852L 320.00,320.00 l 127.148,0.00 c 0.547-2.873, 0.852-5.583, 0.852-8.00L 448.00,8.00 z" />
<glyph unicode="&#xe05c;" d="M 303.999,224.00c-44.187,0.00-80.00-35.816-80.00-80.00s 35.815-80.00, 80.00-80.00c 44.184,0.00, 80.00,35.816, 80.00,80.00S 348.183,224.00, 303.999,224.00z M 303.999,144.00
		l0.00,64.00 c 35.287,0.00, 64.00-28.71, 64.00-64.00L 303.999,144.00 zM 96.00,224.00L 192.00,224.00L 192.00,192.00L 96.00,192.00zM 96.00,160.00L 192.00,160.00L 192.00,128.00L 96.00,128.00zM 96.00,96.00L 192.00,96.00L 192.00,64.00L 96.00,64.00zM 451.716,380.285l-71.432,71.431C 364.728,467.272, 334.00,480.00, 312.00,480.00L 72.00,480.00 C 50.00,480.00, 32.00,462.00, 32.00,440.00l0.00-432.00 c0.00-22.00, 18.00-40.00, 40.00-40.00l 368.00,0.00 
		c 22.00,0.00, 40.00,18.00, 40.00,40.00L 480.00,312.00 C 480.00,334.00, 467.272,364.729, 451.716,380.285z M 429.089,357.657c 1.565-1.565, 3.125-3.487, 4.64-5.657L 352.00,352.00 L 352.00,433.728 
		c 2.17-1.515, 4.092-3.075, 5.657-4.64L 429.089,357.657z M 448.00,8.00c0.00-4.336-3.664-8.00-8.00-8.00L 72.00,0.00 c-4.336,0.00-8.00,3.664-8.00,8.00L 64.00,440.00 
		c0.00,4.336, 3.664,8.00, 8.00,8.00l 240.00,0.00 c 2.416,0.00, 5.127-0.305, 8.00-0.852L 320.00,320.00 l 127.148,0.00 c 0.547-2.873, 0.852-5.583, 0.852-8.00L 448.00,8.00 z" />
<glyph unicode="&#xe05d;" d="M 371.514,288.00L 303.867,288.00L 256.001,217.484L 208.131,288.00L 140.487,288.00L 221.568,166.768L 130.081,32.00L 261.201,32.00L 261.201,77.788L 230.923,77.788L 256.001,115.285L 311.699,32.00L 381.92,32.00L 290.432,166.768 	zM 451.716,380.285l-71.432,71.431C 364.728,467.272, 334.00,480.00, 312.00,480.00L 72.00,480.00 C 50.00,480.00, 32.00,462.00, 32.00,440.00l0.00-432.00 c0.00-22.00, 18.00-40.00, 40.00-40.00l 368.00,0.00 
		c 22.00,0.00, 40.00,18.00, 40.00,40.00L 480.00,312.00 C 480.00,334.00, 467.272,364.729, 451.716,380.285z M 429.089,357.657c 1.565-1.565, 3.125-3.487, 4.64-5.657L 352.00,352.00 L 352.00,433.728 
		c 2.17-1.515, 4.092-3.075, 5.657-4.64L 429.089,357.657z M 448.00,8.00c0.00-4.336-3.664-8.00-8.00-8.00L 72.00,0.00 c-4.336,0.00-8.00,3.664-8.00,8.00L 64.00,440.00 
		c0.00,4.336, 3.664,8.00, 8.00,8.00l 240.00,0.00 c 2.416,0.00, 5.127-0.305, 8.00-0.852L 320.00,320.00 l 127.148,0.00 c 0.547-2.873, 0.852-5.583, 0.852-8.00L 448.00,8.00 z" />
<glyph unicode="&#xe05e;" d="M 319.889,242.054L 341.995,242.054L 316.489,128.965L 283.326,287.97L 230.051,287.97L 191.494,128.965L 162.586,287.97L 106.889,287.97L 163.435,32.029L 217.854,32.029L 256.001,183.383L 290.129,32.029L 340.297,32.029L 405.112,287.97L 319.889,287.97 	
		zM 451.716,380.285l-71.432,71.431C 364.728,467.272, 334.00,480.00, 312.00,480.00L 72.00,480.00 C 50.00,480.00, 32.00,462.00, 32.00,440.00l0.00-432.00 c0.00-22.00, 18.00-40.00, 40.00-40.00l 368.00,0.00 
		c 22.00,0.00, 40.00,18.00, 40.00,40.00L 480.00,312.00 C 480.00,334.00, 467.272,364.729, 451.716,380.285z M 429.089,357.657c 1.565-1.565, 3.125-3.487, 4.64-5.657L 352.00,352.00 L 352.00,433.728 
		c 2.17-1.515, 4.092-3.075, 5.657-4.64L 429.089,357.657z M 448.00,8.00c0.00-4.336-3.664-8.00-8.00-8.00L 72.00,0.00 c-4.336,0.00-8.00,3.664-8.00,8.00L 64.00,440.00 
		c0.00,4.336, 3.664,8.00, 8.00,8.00l 240.00,0.00 c 2.416,0.00, 5.127-0.305, 8.00-0.852L 320.00,320.00 l 127.148,0.00 c 0.547-2.873, 0.852-5.583, 0.852-8.00L 448.00,8.00 z" />
<glyph unicode="&#xe05f;" d="M 345.11,244.159c-30.334,14.326-68.986,17.21-97.417-3.024c 34.57,3.302, 72.479-2.419, 97.553-28.562
			c 24.00,27.54, 62.057,32.703, 96.479,29.866C 412.981,261.511, 375.115,258.951, 345.11,244.159zM 332.824,177.125c-34.189,0.789-67.217-11.586-95.55-30.052c-53.588,22.794-121.368,18.562-167.001-19.491
			c 13.165,0.467, 26.003,3.723, 39.028,5.396c 47.591,4.744, 98.294-7.071, 134.256-39.912c 14.886,21.771, 35.822,39.121, 59.826,49.961
			c 31.537,15.26, 67.08,16.842, 101.41,17.26C 383.949,174.611, 357.485,177.264, 332.824,177.125zM 451.716,380.285l-71.432,71.431C 364.728,467.272, 334.00,480.00, 312.00,480.00L 72.00,480.00 C 50.00,480.00, 32.00,462.00, 32.00,440.00l0.00-432.00 c0.00-22.00, 18.00-40.00, 40.00-40.00l 368.00,0.00 
		c 22.00,0.00, 40.00,18.00, 40.00,40.00L 480.00,312.00 C 480.00,334.00, 467.272,364.729, 451.716,380.285z M 429.089,357.657c 1.565-1.565, 3.125-3.487, 4.64-5.657L 352.00,352.00 L 352.00,433.728 
		c 2.17-1.515, 4.092-3.075, 5.657-4.64L 429.089,357.657z M 448.00,8.00c0.00-4.336-3.664-8.00-8.00-8.00L 72.00,0.00 c-4.336,0.00-8.00,3.664-8.00,8.00L 64.00,440.00 
		c0.00,4.336, 3.664,8.00, 8.00,8.00l 240.00,0.00 c 2.416,0.00, 5.127-0.305, 8.00-0.852L 320.00,320.00 l 127.148,0.00 c 0.547-2.873, 0.852-5.583, 0.852-8.00L 448.00,8.00 z" />
</font>
</defs>
</svg>
